<svg xmlns="http://www.w3.org/2000/svg" width="24.966" height="25.466" viewBox="0 0 24.966 25.466">
  <g id="_3890943_bag_cash_currency_dollar_money_icon" data-name="3890943_bag_cash_currency_dollar_money_icon" transform="translate(0)">
    <g id="fill" transform="translate(0.458)">
      <path id="Path_4621" data-name="Path 4621" d="M28.638,7.028c-.723-.563-.482-1.527-1.125-2.251a2.729,2.729,0,0,0-1.018-.723c-.456-.214-1.1-.107-1.554-.348-.7-.348-.8-1.206-1.8-1.206a1.4,1.4,0,0,0-1.393,1.393,14.627,14.627,0,0,0-.107,1.527,1.732,1.732,0,0,0-.107.536c-.027.429-.054.884-.054,1.34a7.974,7.974,0,0,0-3.376.161c-2.679-.161-5.439,1.313-7.476,2.921A13.727,13.727,0,0,0,7.47,14.022c0,.027-.027.027-.027.054a9.611,9.611,0,0,0-1.956,1.313.985.985,0,0,0-.268.965,1.069,1.069,0,0,0,1.125.965.34.34,0,0,0,.161-.027c.08-.027.161-.027.241-.054l.08.241v.241a9.585,9.585,0,0,0,8.9,8.869c.054.134.08.268.134.375a1.043,1.043,0,0,0,1.259.7,1.121,1.121,0,0,0,.482-.295,1.2,1.2,0,0,0,.536-.429l.777-1.313a8.843,8.843,0,0,0,4.019-3.537,10.287,10.287,0,0,0,.589-1.045A10.062,10.062,0,0,0,25.4,15.79a22.084,22.084,0,0,0,.054-4.609c1.447-.777,3.966-.161,4.234-2.278A1.991,1.991,0,0,0,28.638,7.028Z" transform="translate(-5.189 -2.5)" fill="#fdb913"/>
    </g>
    <g id="line_copy" transform="translate(0 0.402)">
      <path id="Path_4622" data-name="Path 4622" d="M24.749,27.91c-.429-.375-.857-.777-1.313-1.233-.4-.429-.777-.831-1.125-1.233a7.214,7.214,0,0,1-.723.857,4.471,4.471,0,0,1-1.34.991,2.621,2.621,0,0,1-1.1.241,2.026,2.026,0,0,1-1.045-.268,1.635,1.635,0,0,1-.723-.75,2.165,2.165,0,0,1-.241-.991,2.3,2.3,0,0,1,.134-.723h0a1.5,1.5,0,0,1,.268-.4.742.742,0,0,0-.241.027,11.965,11.965,0,0,0-6.752,2.653A11.036,11.036,0,0,0,7.9,30.509h0a1.394,1.394,0,0,1-.482.563l-1.125.777a.409.409,0,0,0-.188.322.631.631,0,0,0,.054.214c.027.054.107.107.161.161l.723.375a1.391,1.391,0,0,1,.7.938,10.14,10.14,0,0,0,2.572,4.984,10.492,10.492,0,0,0,5.439,3.028.378.378,0,0,1,.241-.027,6.57,6.57,0,0,0,.723.054h.134a.389.389,0,1,1,.027.777h-.027a4.951,4.951,0,0,0,.375.375.664.664,0,0,0,.911.027l.027-.027,1.233-1.286h0a1.26,1.26,0,0,1,.322-.241,11.309,11.309,0,0,0,4.26-4.368,10.681,10.681,0,0,0,1.1-5.091c0-.884-.054-1.715-.107-2.465C24.883,28.875,24.8,28.312,24.749,27.91Zm-5.171,1.554a7.025,7.025,0,0,0-.67.589c.054.054.107.134.161.188a2.3,2.3,0,0,1,.429,1.447,2.94,2.94,0,0,1-.214,1.072.384.384,0,0,1-.7-.322,1.948,1.948,0,0,0-.161-1.742,1.817,1.817,0,0,0-1.474-.777h-.161a1.847,1.847,0,0,0-.857.322,1.638,1.638,0,0,0-.563.643.881.881,0,0,0-.107.456v.027a.849.849,0,0,0,.241.616,7.025,7.025,0,0,0,.589.67,3.561,3.561,0,0,0,.7.563,2.761,2.761,0,0,1,.67.7h0A2.458,2.458,0,0,1,17.89,35.2a1.769,1.769,0,0,1-.027.375h0a1.841,1.841,0,0,1-.536.938,4.175,4.175,0,0,1-.536.429,2.662,2.662,0,0,1-1.474.4,2.028,2.028,0,0,1-.4-.027,3.119,3.119,0,0,1-1.42-.643c-.161.188-.348.4-.509.616h0a.383.383,0,0,1-.616-.456c.188-.241.375-.482.589-.723a3.465,3.465,0,0,1-.482-.938h0A3.3,3.3,0,0,1,12.584,33h0a.4.4,0,0,1,.509-.214.376.376,0,0,1,.214.482,2.471,2.471,0,0,0-.188.965,1.85,1.85,0,0,0,.107.67h0a2.507,2.507,0,0,0,.67,1.072,2.051,2.051,0,0,0,1.125.563,1.1,1.1,0,0,0,.295.027,2.148,2.148,0,0,0,1.072-.295,1.552,1.552,0,0,0,.723-.884h0a.59.59,0,0,0,.027-.214,1.774,1.774,0,0,0-.322-.884h0a1.558,1.558,0,0,0-.456-.482,3.817,3.817,0,0,1-.8-.67,9.291,9.291,0,0,1-.67-.777,1.811,1.811,0,0,1-.348-1.045v-.027h0a1.615,1.615,0,0,1,.214-.777,2.885,2.885,0,0,1,.482-.643,2.625,2.625,0,0,1,1.554-.723h.241a2.47,2.47,0,0,1,1.367.4,9.6,9.6,0,0,1,.777-.7.382.382,0,0,1,.536.054.546.546,0,0,1-.134.563Z" transform="translate(-5.398 -18.934)" fill="none"/>
      <path id="Path_4623" data-name="Path 4623" d="M73.472,12.005a5.787,5.787,0,0,1-.67-.723c-.027-.054-.08-.107-.107-.161-.589.4-1.206.8-1.8,1.179h0a.386.386,0,1,1-.429-.643h0c.643-.4,1.259-.831,1.9-1.233a.083.083,0,0,1,.054-.027c0-.107-.027-.188-.027-.295a2.452,2.452,0,0,0-.027-.429,1.467,1.467,0,0,0-.991-1.125,3.826,3.826,0,0,0-.777-.08,4.137,4.137,0,0,1-.8-.107c0,.027-.027.054-.054.08-.295.375-.563.777-.831,1.179h0a.372.372,0,1,1-.643-.375h0a12.682,12.682,0,0,1,.857-1.233c-.027-.027-.054-.027-.054-.054h0a1.76,1.76,0,0,1-.322-.456,1.519,1.519,0,0,0-.214-.348,1.186,1.186,0,0,0-.4-.322,1.791,1.791,0,0,0-.509-.134.59.59,0,0,0-.214.027c-.188,1.554-.4,3.108-.616,4.662a19.939,19.939,0,0,0,1.581,1.8c.429.429.831.8,1.233,1.152a6.883,6.883,0,0,1,3.617-1.286A2.36,2.36,0,0,0,73.686,13a.8.8,0,0,0,.268-.107c.027-.027.027-.027.027-.054v-.027a.5.5,0,0,0-.054-.188A2.443,2.443,0,0,0,73.472,12.005Z" transform="translate(-49.834 -5.977)" fill="none"/>
      <path id="Path_4624" data-name="Path 4624" d="M55.151,13.287a.631.631,0,0,0,.214.054.2.2,0,0,0-.027-.107,7.555,7.555,0,0,0-.75-2.144,1.106,1.106,0,0,0-.188-.295.626.626,0,0,0-.188-.188.981.981,0,0,0-.482-.107h-.08a1.581,1.581,0,0,0-.375.054.522.522,0,0,0-.268.268,1.116,1.116,0,0,0-.08.723h0a1.638,1.638,0,0,0,.348.589,3.665,3.665,0,0,0,.589.509h0A5.774,5.774,0,0,0,55.151,13.287Z" transform="translate(-39.658 -8.758)" fill="none"/>
      <path id="Path_4625" data-name="Path 4625" d="M50.763,26.6a2.067,2.067,0,0,0,.7.188,1.949,1.949,0,0,0,.777-.188,2.855,2.855,0,0,0,.75-.509,5.593,5.593,0,0,0,1.1-1.286c-.027-.027-.054-.054-.054-.08-.616-.134-1.259-.241-1.876-.322-.027,0-.08.027-.107.027a4.16,4.16,0,0,0-.831.08,1.605,1.605,0,0,0-.67.268.87.87,0,0,0-.268.348h0a1.075,1.075,0,0,0-.08.4,1.346,1.346,0,0,0,.161.643A.788.788,0,0,0,50.763,26.6Z" transform="translate(-37.682 -18.934)" fill="none"/>
      <path id="Path_4626" data-name="Path 4626" d="M28.3,10.324a4.441,4.441,0,0,0-.857-1.018c-.134-.134-.241-.268-.375-.4a1.106,1.106,0,0,1-.188-.4h0a1.809,1.809,0,0,1-.054-.375c0-.161-.027-.322-.027-.509a2.2,2.2,0,0,0-1.554-1.742,6.156,6.156,0,0,0-1.206-.134,1.252,1.252,0,0,1-.456-.08.927.927,0,0,1-.322-.188,1.106,1.106,0,0,1-.188-.295c-.08-.161-.161-.295-.241-.429h0a1.52,1.52,0,0,0-.67-.563A1.905,1.905,0,0,0,21.3,4a2.013,2.013,0,0,0-.7.134.313.313,0,0,0-.214.295L19.911,8.18a9.335,9.335,0,0,0-.777-2.2l-.241-.4a2.483,2.483,0,0,0-.375-.375,1.662,1.662,0,0,0-.857-.241h-.107a1.541,1.541,0,0,0-.7.134,1.432,1.432,0,0,0-.643.616,1.728,1.728,0,0,0-.134,1.313,2.456,2.456,0,0,0,.509.884,3.156,3.156,0,0,0,.723.616l.214-.322-.214.322c.107.054.188.134.295.188-.295-.027-.563-.027-.884-.027-.429,0-.884.027-1.34.054A12.614,12.614,0,0,0,8.2,11.583a11.867,11.867,0,0,0-2.84,3.671h0a.76.76,0,0,1-.241.268L4,16.3a1.161,1.161,0,0,0-.322,1.608.788.788,0,0,0,.4.375l.723.375a.561.561,0,0,1,.295.4,10.854,10.854,0,0,0,2.76,5.359,11.346,11.346,0,0,0,5.868,3.269.518.518,0,0,1,.241.134l.161-.161h0l-.161.161.75.8a1.4,1.4,0,0,0,1.983.054l.054-.054,1.233-1.286h0a.561.561,0,0,1,.161-.107A11.8,11.8,0,0,0,22.7,22.542,11.442,11.442,0,0,0,23.877,17.1c0-.911-.054-1.768-.107-2.492-.027-.589-.107-1.125-.161-1.527a5.983,5.983,0,0,1,3.323-1.206,2.66,2.66,0,0,0,.8-.134,1.009,1.009,0,0,0,.4-.241.831.831,0,0,0,.241-.482v-.134a.77.77,0,0,0-.08-.563ZM16.08,10.216h0a1.105,1.105,0,0,1,.268-.348,1.475,1.475,0,0,1,.67-.268,4.362,4.362,0,0,1,.831-.08.161.161,0,0,0,.107-.027,10.978,10.978,0,0,1,1.876.322c.027.027.054.054.054.08a5.594,5.594,0,0,1-1.1,1.286,3.244,3.244,0,0,1-.75.482,1.949,1.949,0,0,1-.777.188,1.3,1.3,0,0,1-.7-.188,1.034,1.034,0,0,1-.4-.429A1.346,1.346,0,0,1,16,10.592.856.856,0,0,1,16.08,10.216ZM17.1,7.4a1.638,1.638,0,0,1-.348-.589h0a.858.858,0,0,1,.08-.723.6.6,0,0,1,.643-.322h.08a1.051,1.051,0,0,1,.482.107.626.626,0,0,1,.188.188c.054.107.134.188.188.295a7.555,7.555,0,0,1,.75,2.144c0,.027.027.08.027.107-.054-.027-.134-.027-.214-.054a5.774,5.774,0,0,1-1.286-.643h0A3.665,3.665,0,0,1,17.1,7.4Zm4.93,14.764a11.129,11.129,0,0,1-4.26,4.368l-.322.241h0l-1.233,1.313a.664.664,0,0,1-.911.027l-.027-.027a4.951,4.951,0,0,0-.375-.375h.027a.389.389,0,1,0-.027-.777h-.134a6.57,6.57,0,0,1-.723-.054.742.742,0,0,0-.241.027,10.79,10.79,0,0,1-5.439-3.028A10.14,10.14,0,0,1,5.79,18.9a1.391,1.391,0,0,0-.7-.938l-.67-.348a.242.242,0,0,1-.161-.161.5.5,0,0,1-.054-.214.325.325,0,0,1,.188-.322l1.125-.777A1.24,1.24,0,0,0,6,15.575H6a10.735,10.735,0,0,1,2.653-3.43A11.575,11.575,0,0,1,15.41,9.493a.742.742,0,0,0,.241-.027,3.491,3.491,0,0,0-.268.4h0a1.3,1.3,0,0,0-.134.723,2.086,2.086,0,0,0,.241.991,1.635,1.635,0,0,0,.723.75,2.326,2.326,0,0,0,1.045.268,2.621,2.621,0,0,0,1.1-.241,4.471,4.471,0,0,0,1.34-.991,7.214,7.214,0,0,0,.723-.857c.348.4.723.8,1.125,1.233.456.456.884.857,1.313,1.233.054.4.134.991.188,1.661.054.723.107,1.581.107,2.465A11.011,11.011,0,0,1,22.028,22.167ZM27.682,10.86c0,.027,0,.054-.027.054a.476.476,0,0,1-.268.107,2.64,2.64,0,0,1-.456.054,6.513,6.513,0,0,0-3.617,1.286c-.4-.348-.8-.723-1.233-1.152a16.833,16.833,0,0,1-1.581-1.8c.214-1.554.4-3.108.616-4.662a.59.59,0,0,1,.214-.027,1.108,1.108,0,0,1,.509.134,1.186,1.186,0,0,1,.4.322c.08.107.134.241.214.348a1.76,1.76,0,0,0,.322.456h0c.027.027.054.027.054.054a12.685,12.685,0,0,0-.857,1.233.372.372,0,1,0,.643.375h0a8.558,8.558,0,0,1,.831-1.179c.027-.027.027-.054.054-.08a4.137,4.137,0,0,0,.8.107,3.638,3.638,0,0,1,.777.08A1.423,1.423,0,0,1,26.074,7.7a2.166,2.166,0,0,1,.027.429,1.2,1.2,0,0,0,.027.295.094.094,0,0,0-.054.027c-.616.429-1.259.831-1.9,1.233a.365.365,0,0,0-.134.509.39.39,0,0,0,.509.134h0c.616-.375,1.206-.777,1.8-1.179.027.054.08.107.107.161a4.293,4.293,0,0,0,.67.723,3.659,3.659,0,0,1,.509.616c.027.08.027.134.054.214Z" transform="translate(-3.481 -4)"/>
      <path id="Path_4627" data-name="Path 4627" d="M50.3,15.3Z" transform="translate(-37.755 -12.272)"/>
      <path id="Path_4628" data-name="Path 4628" d="M29.7,64.5Z" transform="translate(-22.675 -48.289)"/>
      <path id="Path_4629" data-name="Path 4629" d="M35.877,40.793a9.6,9.6,0,0,0-.777.7,2.47,2.47,0,0,0-1.367-.4h-.241a2.625,2.625,0,0,0-1.554.723,2.251,2.251,0,0,0-.482.643,1.982,1.982,0,0,0-.214.777h0v.027A1.811,1.811,0,0,0,31.59,44.3a6.05,6.05,0,0,0,.67.777,6.657,6.657,0,0,0,.8.67,1.558,1.558,0,0,1,.456.482h0a1.774,1.774,0,0,1,.322.884.59.59,0,0,1-.027.214h0a1.078,1.078,0,0,1-.322.563,4.221,4.221,0,0,1-.4.322,2.148,2.148,0,0,1-1.072.295,1.1,1.1,0,0,1-.295-.027A2.144,2.144,0,0,1,30.6,47.92a2.793,2.793,0,0,1-.67-1.072h0a1.866,1.866,0,0,1-.134-.67,2.382,2.382,0,0,1,.188-.965.366.366,0,0,0-.214-.482.376.376,0,0,0-.482.214h0a3.394,3.394,0,0,0-.241,1.259,3.569,3.569,0,0,0,.134.911,2.831,2.831,0,0,0,.482.938,7.708,7.708,0,0,0-.589.723.383.383,0,1,0,.616.456h0c.161-.214.322-.4.509-.616a2.762,2.762,0,0,0,1.42.643,2.028,2.028,0,0,0,.4.027,2.834,2.834,0,0,0,1.474-.4,2.69,2.69,0,0,0,.536-.429,1.956,1.956,0,0,0,.536-.938h0a1.769,1.769,0,0,0,.027-.375,2.458,2.458,0,0,0-.429-1.286h0a2.366,2.366,0,0,0-.67-.7,4.578,4.578,0,0,1-.7-.563,7.026,7.026,0,0,1-.589-.67,1.353,1.353,0,0,1-.241-.616v-.027a1.409,1.409,0,0,1,.107-.456,1.638,1.638,0,0,1,.563-.643,1.777,1.777,0,0,1,.857-.322h.161a1.781,1.781,0,0,1,1.474.777,1.493,1.493,0,0,1,.295.991,2.325,2.325,0,0,1-.134.75.384.384,0,0,0,.7.322,2.94,2.94,0,0,0,.214-1.072,2.766,2.766,0,0,0-.429-1.447A1.165,1.165,0,0,0,35.609,42a7.025,7.025,0,0,1,.67-.589.387.387,0,0,0,.08-.536.319.319,0,0,0-.482-.08Z" transform="translate(-22.153 -30.878)"/>
    </g>
  </g>
</svg>
