<svg xmlns="http://www.w3.org/2000/svg" width="22.855" height="25.813" viewBox="0 0 22.855 25.813">
  <g id="_5978636_corona_coronavirus_hourglass_timer_virus_icon" data-name="5978636_corona_coronavirus_hourglass_timer_virus_icon" transform="translate(0 0)">
    <g id="Group_1821" data-name="Group 1821" transform="translate(0.366 0.5)">
      <g id="Group_1816" data-name="Group 1816" transform="translate(0 0)">
        <path id="Path_4567" data-name="Path 4567" d="M23.411,4.709H4.313A1.551,1.551,0,0,1,2.8,3.154h0A1.516,1.516,0,0,1,4.313,1.6h19.1a1.508,1.508,0,0,1,1.461,1.554h0A1.508,1.508,0,0,1,23.411,4.709Z" transform="translate(-2.8 -1.6)" fill="#ffd947"/>
      </g>
      <g id="Group_1817" data-name="Group 1817" transform="translate(0 21.76)">
        <path id="Path_4568" data-name="Path 4568" d="M23.411,43.964H4.313A1.565,1.565,0,0,1,2.8,42.354h0A1.516,1.516,0,0,1,4.313,40.8h19.1a1.508,1.508,0,0,1,1.461,1.554h0A1.523,1.523,0,0,1,23.411,43.964Z" transform="translate(-2.8 -40.8)" fill="#ffd947"/>
      </g>
      <g id="Group_1818" data-name="Group 1818" transform="translate(5.009 3.109)">
        <path id="Path_4569" data-name="Path 4569" d="M20.488,15.8l3.392-3.775a2.766,2.766,0,0,0,.678-1.776V7.2H12.4v3a2.766,2.766,0,0,0,.678,1.776l3.392,3.775a1.087,1.087,0,0,1,0,1.443l-3.392,3.775a2.766,2.766,0,0,0-.678,1.776v3H24.506v-3a2.766,2.766,0,0,0-.678-1.776l-3.392-3.775A1.077,1.077,0,0,1,20.488,15.8Z" transform="translate(-12.4 -7.2)" fill="#fff"/>
      </g>
      <g id="Group_1819" data-name="Group 1819" transform="translate(8.401 7.772)">
        <path id="Path_4570" data-name="Path 4570" d="M21.561,18.82a7.284,7.284,0,0,1,.522-.833L24.222,15.6H18.9l2.139,2.442A3.946,3.946,0,0,1,21.561,18.82Z" transform="translate(-18.9 -15.6)" fill="#ffa546"/>
      </g>
      <g id="Group_1820" data-name="Group 1820" transform="translate(7.044 13.822)">
        <path id="Path_4571" data-name="Path 4571" d="M20.84,27.333a2.21,2.21,0,0,1-.522-.833,7.284,7.284,0,0,1-.522.833L16.4,31.107a.439.439,0,0,0-.1.278v.833h8.036v-.833a.439.439,0,0,0-.1-.278Z" transform="translate(-16.3 -26.5)" fill="#ffa546"/>
      </g>
    </g>
    <path id="Path_4572" data-name="Path 4572" d="M23.077,4.7a1.933,1.933,0,0,0,1.878-2,1.933,1.933,0,0,0-1.878-2H3.978A1.933,1.933,0,0,0,2.1,2.7a1.933,1.933,0,0,0,1.878,2h.365V22.516H3.978a2,2,0,0,0,0,4h19.1a2,2,0,0,0,0-4h-.365V4.7ZM2.883,2.7a1.106,1.106,0,0,1,1.1-1.166h19.1a1.106,1.106,0,0,1,1.1,1.166,1.106,1.106,0,0,1-1.1,1.166H3.978A1.106,1.106,0,0,1,2.883,2.7ZM15.249,14.633l3.392,3.83a2.218,2.218,0,0,1,.574,1.5v2.609H7.84V19.962a2.218,2.218,0,0,1,.574-1.5l3.392-3.775a1.471,1.471,0,0,0,0-2L8.414,8.86a2.218,2.218,0,0,1-.574-1.5V4.7H19.215V7.306a2.218,2.218,0,0,1-.574,1.5l-3.392,3.775A1.673,1.673,0,0,0,15.249,14.633ZM5.126,4.7H7.057V7.306A2.948,2.948,0,0,0,7.84,9.36l3.392,3.775a.707.707,0,0,1,0,.888L7.84,17.8a2.948,2.948,0,0,0-.783,2.054V22.46H5.126ZM24.172,24.57a1.106,1.106,0,0,1-1.1,1.166H3.978a1.168,1.168,0,0,1,0-2.331h19.1A1.106,1.106,0,0,1,24.172,24.57Zm-2.244-2H20V19.962a2.948,2.948,0,0,0-.783-2.054l-3.392-3.775a.707.707,0,0,1,0-.888l3.392-3.775A2.948,2.948,0,0,0,20,7.417V4.7h1.931Z" transform="translate(-2.1 -0.7)"/>
    <path id="Path_4573" data-name="Path 4573" d="M17.2,14.9l2.766,3.109a2.121,2.121,0,0,1,.47.722l.365.777.365-.777a2.12,2.12,0,0,1,.47-.722L24.4,14.9Zm3.809,2.554c-.1.111-.157.222-.261.333a.65.65,0,0,0-.261-.278l-1.513-1.665h3.5Z" transform="translate(-9.32 -7.017)"/>
    <path id="Path_4574" data-name="Path 4574" d="M20.818,26.3a2.121,2.121,0,0,1-.47-.722l-.365-.777-.365.777a2.121,2.121,0,0,1-.47.722l-3.34,3.775a.737.737,0,0,0-.209.555V31.85h8.819V30.629a.737.737,0,0,0-.209-.555L20.818,26.3Zm2.766,4.774H16.331v-.389l3.392-3.775c.1-.111.157-.222.261-.333a.65.65,0,0,0,.261.278l3.392,3.775v.444Z" transform="translate(-8.555 -11.422)"/>
  </g>
</svg>
