<svg xmlns="http://www.w3.org/2000/svg" width="25.373" height="25.373" viewBox="0 0 25.373 25.373">
  <g id="_6-File-Document-check" data-name="6-File-Document-check" transform="translate(0 0)">
    <path id="Path_4575" data-name="Path 4575" d="M30.986,10.171H22V7h8.457a.517.517,0,0,1,.529.529Z" transform="translate(-10.369 -3.298)" fill="#f6b445"/>
    <path id="Path_4576" data-name="Path 4576" d="M12.1,4.171V7.343H23.2a2.114,2.114,0,0,1,2.114,2.114V23.2A2.114,2.114,0,0,1,23.2,25.314H3.114A2.114,2.114,0,0,1,1,23.2V3.114A2.071,2.071,0,0,1,3.114,1H9.986A2.071,2.071,0,0,1,12.1,3.114Z" transform="translate(-0.469 -0.47)" fill="#ffd947"/>
    <circle id="Ellipse_170" data-name="Ellipse 170" cx="7" cy="7" r="7" transform="translate(11 11)" fill="#35dc86"/>
    <path id="Path_4577" data-name="Path 4577" d="M30.028,17.814a.529.529,0,0,1-.529-.529V14.643a1.586,1.586,0,0,0-1.586-1.586H11.529a.529.529,0,1,1,0-1.057H27.914a2.646,2.646,0,0,1,2.643,2.643v2.643A.529.529,0,0,1,30.028,17.814Z" transform="translate(-5.184 -5.655)" fill="#474c54"/>
    <path id="Path_4578" data-name="Path 4578" d="M17.97,25.37H2.641A2.646,2.646,0,0,1,0,22.727V2.641A2.548,2.548,0,0,1,2.641,0H9.513a2.548,2.548,0,0,1,2.643,2.643V3.17h7.929a1.035,1.035,0,0,1,1.057,1.057v.529a.529.529,0,1,1-1.057,0V4.227H11.627A.529.529,0,0,1,11.1,3.7V2.641A1.509,1.509,0,0,0,9.509,1.056H2.641A1.508,1.508,0,0,0,1.056,2.644V22.727a1.586,1.586,0,0,0,1.586,1.586H17.97a6.343,6.343,0,1,0-4.546-1.919.529.529,0,1,1-.757.74,7.4,7.4,0,1,1,5.3,2.236Z" transform="translate(0.004 0.003)" fill="#474c54"/>
    <path id="Path_4579" data-name="Path 4579" d="M29.114,34.814a.528.528,0,0,1-.374-.155l-1.586-1.586a.529.529,0,1,1,.747-.747l1.212,1.212L33.5,29.155a.529.529,0,1,1,.747.747l-4.757,4.757A.529.529,0,0,1,29.114,34.814Z" transform="translate(-12.727 -13.67)" fill="#474c54"/>
  </g>
</svg>
