<svg xmlns="http://www.w3.org/2000/svg" width="24.179" height="25.067" viewBox="0 0 24.179 25.067">
  <g id="_8333858_deal_done_partnership_agreement_icon" data-name="8333858_deal_done_partnership_agreement_icon" transform="translate(0 0)">
    <g id="Group_1863" data-name="Group 1863" transform="translate(0 0)">
      <g id="Group_1856" data-name="Group 1856" transform="translate(0 5.337)">
        <g id="Group_1850" data-name="Group 1850" transform="translate(0.196 2.169)">
          <path id="Path_4600" data-name="Path 4600" d="M30.75,164.75a1.03,1.03,0,0,1-1.414.338l.122.078a1.033,1.033,0,0,1-.538,1.914,1,1,0,0,1-.411-.088l.02.02a1.034,1.034,0,0,1,.338,1.424,1.017,1.017,0,0,1-.881.489,1,1,0,0,1-.519-.142,1.036,1.036,0,0,1-1.2,1.684l-4.792-2.946-2.711-1.233-.92-2.369L12.9,161.109V153.4l7.855,4.263,2.388-1.493,2.007.533-.8,3.01,6.069,3.617A1.035,1.035,0,0,1,30.75,164.75Z" transform="translate(-12.9 -153.4)" fill="#ffd947"/>
        </g>
        <g id="Group_1851" data-name="Group 1851" transform="translate(0.196 2.169)">
          <path id="Path_4601" data-name="Path 4601" d="M30.75,164.75a1.023,1.023,0,0,1-.7.475,1.036,1.036,0,0,0-.475-1.062l-6.069-3.617.8-3.01-1.336-.117-2.388,1.493L12.9,154.687V153.4l7.855,4.263,2.388-1.493,2.007.533-.8,3.01,6.069,3.617A1.035,1.035,0,0,1,30.75,164.75Z" transform="translate(-12.9 -153.4)" fill="#fee9b4"/>
        </g>
        <g id="Group_1852" data-name="Group 1852" transform="translate(0.191 8.566)">
          <path id="Path_4602" data-name="Path 4602" d="M27.723,294.065a1.024,1.024,0,0,1-.137.362,1.038,1.038,0,0,1-1.419.338l-4.792-2.946-2.711-1.233-.92-2.369L12.8,285.407V284.1l5.785,3.284.92,2.369,2.711,1.233L27,293.933a1.025,1.025,0,0,0,.543.152A.721.721,0,0,0,27.723,294.065Z" transform="translate(-12.8 -284.1)" fill="#fdd367"/>
        </g>
        <g id="Group_1853" data-name="Group 1853" transform="translate(8.174 0.187)">
          <path id="Path_4603" data-name="Path 4603" d="M191.719,112.9v7.772l-3.871,1.86-2.413,2.281-6.069-3.617-.4,1.2a2.319,2.319,0,0,1-2.031,1.591l-1.038.024,1.561-3.994,2.7-1.835h2.393Z" transform="translate(-175.9 -112.9)" fill="#ffd947"/>
        </g>
        <g id="Group_1854" data-name="Group 1854" transform="translate(8.174 0.192)">
          <path id="Path_4604" data-name="Path 4604" d="M191.719,113v1.321l-8.467,4.885h-2.4l-2.7,1.831-1.189,3.035s.049,0-1.062.034l1.561-3.994,2.7-1.83h2.4Z" transform="translate(-175.9 -113)" fill="#fff3d9"/>
        </g>
        <g id="Group_1855" data-name="Group 1855" transform="translate(16.69 6.726)">
          <path id="Path_4605" data-name="Path 4605" d="M357.2,246.5v1.233l-3.871,1.855-2.408,2.281-1.023-.607,2.746-2.6Z" transform="translate(-349.9 -246.5)" fill="#fedd8e"/>
        </g>
        <path id="Path_4606" data-name="Path 4606" d="M124.1,394.691a.318.318,0,0,1-.436.113l-1.2-.7a.318.318,0,0,1-.113-.436l.7-1.2a.318.318,0,0,1,.436-.113l1.2.7a.318.318,0,0,1,.113.436" transform="translate(-116.757 -378.445)" fill="#fee9b4"/>
        <path id="Path_4607" data-name="Path 4607" d="M160,414.791l-.7,1.2a.319.319,0,0,1-.436.113l-1.2-.7a.318.318,0,0,1-.113-.436l.7-1.2a.319.319,0,0,1,.436-.113l1.2.7A.318.318,0,0,1,160,414.791Z" transform="translate(-150.234 -398.702)" fill="#fee9b4"/>
        <path id="Path_4608" data-name="Path 4608" d="M195.3,436.091l-.7,1.2a.318.318,0,0,1-.436.113l-1.194-.7a.318.318,0,0,1-.113-.436l.7-1.2a.318.318,0,0,1,.436-.113l1.2.7A.321.321,0,0,1,195.3,436.091Z" transform="translate(-183.806 -418.96)" fill="#fee9b4"/>
        <path id="Path_4609" data-name="Path 4609" d="M230.5,457.391l-.7,1.2a.318.318,0,0,1-.436.113l-1.2-.7a.318.318,0,0,1-.113-.436l.7-1.2a.318.318,0,0,1,.436-.113l1.2.7A.323.323,0,0,1,230.5,457.391Z" transform="translate(-217.283 -439.217)" fill="#fee9b4"/>
        <path id="Path_4610" data-name="Path 4610" d="M32.99,109.1a.19.19,0,0,0-.191,0l-9.113,5.257h-2.32c-2.046-.524-2.012-.587-2.139-.5l-2.286,1.434-7.758-4.209a.193.193,0,0,0-.284.171v7.738a.191.191,0,0,0,.191.191l4.792,2.726.715,1.845-.269.46a.508.508,0,0,0,.181.7l1.2.7a.5.5,0,0,0,.3.064.506.506,0,0,0,.22.274l1.2.7a.465.465,0,0,0,.3.064.506.506,0,0,0,.22.274l1.2.7a.494.494,0,0,0,.3.064.506.506,0,0,0,.22.274l1.2.7a.5.5,0,0,0,.69-.181l.24-.406.543.333a1.228,1.228,0,0,0,1.772-1.517,1.2,1.2,0,0,0,1.087-.578,1.226,1.226,0,0,0,.015-1.268,1.212,1.212,0,0,0,.915-.573,1.229,1.229,0,0,0,.02-1.268,1.2,1.2,0,0,0,.94-.578,1.223,1.223,0,0,0-.206-1.537l2.227-2.1,3.847-1.845a.189.189,0,0,0,.113-.176v-7.777A.17.17,0,0,0,32.99,109.1ZM16.046,125.257c-.064.039-.113.034-.142.01l-1.2-.7a.121.121,0,0,1-.044-.171l.7-1.2a.121.121,0,0,1,.171-.044l1.2.7a.12.12,0,0,1,.054.147C16.721,124.1,16.06,125.242,16.046,125.257Zm1.728,1.043c-.064.039-.113.034-.142.01l-1.2-.7a.126.126,0,0,1-.044-.171l.7-1.2a.128.128,0,0,1,.176-.044l1.2.7a.12.12,0,0,1,.054.147C18.5,125.071,17.774,126.285,17.774,126.3Zm1.718,1.042c-.064.039-.113.034-.142.01l-1.194-.7a.126.126,0,0,1-.044-.171l.7-1.2a.128.128,0,0,1,.176-.044l1.2.7a.117.117,0,0,1,.054.147C20.191,126.172,19.5,127.332,19.491,127.342Zm2.462-.191-.7,1.2a.121.121,0,0,1-.171.044l-1.2-.7a.121.121,0,0,1-.044-.171l.7-1.2a.123.123,0,0,1,.171-.044l1.2.7A.124.124,0,0,1,21.953,127.151Zm4.826-4.655a.823.823,0,0,1-.715.4.837.837,0,0,1-.44-.127h0l-1.953-1.17a.2.2,0,0,0-.264.064.2.2,0,0,0,.064.264l2.08,1.253a.843.843,0,0,1,.274,1.165.829.829,0,0,1-.715.4.838.838,0,0,1-.328-.069l-2.3-1.4a.192.192,0,1,0-.2.328s2.33,1.429,2.335,1.429a.839.839,0,0,1-.44,1.556.816.816,0,0,1-.416-.113l-2.09-1.326a.191.191,0,0,0-.206.323l2.075,1.321a.842.842,0,0,1-.979,1.366l-.548-.338.274-.465a.51.51,0,0,0-.181-.695l-1.2-.7a.523.523,0,0,0-.3-.069.528.528,0,0,0-.22-.274l-1.2-.7a.485.485,0,0,0-.308-.064.5.5,0,0,0-.215-.274l-1.2-.7a.514.514,0,0,0-.3-.069.506.506,0,0,0-.22-.274l-1.2-.7a.508.508,0,0,0-.695.181l-.186.318-.631-1.625a.2.2,0,0,0-.083-.1l-4.85-2.756v-7.268c7.968,4.283,7.576,4.214,7.762,4.106l2.315-1.449,1.522.406-2.354,1.6a.152.152,0,0,0-.069.088L16.9,120.3a.192.192,0,0,0,.181.264l1.047-.024a2.507,2.507,0,0,0,2.2-1.723l.318-.969,5.859,3.49A.837.837,0,0,1,26.779,122.5Zm5.922-5.584-3.764,1.806a.2.2,0,0,0-.054.034l-2.305,2.178L20.9,117.548l1.478-.95a.191.191,0,0,0-.206-.323c-1.958,1.248-1.772,1.126-1.821,1.219l-.4,1.2a2.115,2.115,0,0,1-1.855,1.459l-.749.02,1.434-3.666,2.6-1.767a15.221,15.221,0,0,0,2.433-.024l8.869-5.115v7.312Z" transform="translate(-8.9 -109.075)" fill="#333"/>
      </g>
      <g id="Group_1862" data-name="Group 1862" transform="translate(7.548 0)">
        <g id="Group_1857" data-name="Group 1857" transform="translate(0.198 0.195)">
          <path id="Path_4611" data-name="Path 4611" d="M174.435,11.571a4.347,4.347,0,1,1,.294-6.138A4.343,4.343,0,0,1,174.435,11.571Z" transform="translate(-167.165 -4.01)" fill="#7bde9e"/>
        </g>
        <g id="Group_1858" data-name="Group 1858" transform="translate(0.894 1.193)">
          <path id="Path_4612" data-name="Path 4612" d="M187.978,30.963a4.353,4.353,0,0,1-6.142-.289,3.98,3.98,0,0,1-.436-.568,4.346,4.346,0,0,0,6.421-5.707,4.08,4.08,0,0,1,.45.426A4.347,4.347,0,0,1,187.978,30.963Z" transform="translate(-181.4 -24.4)" fill="#51d27f"/>
        </g>
        <g id="Group_1859" data-name="Group 1859" transform="translate(0.198 0.193)">
          <path id="Path_4613" data-name="Path 4613" d="M175.164,5.963a4.346,4.346,0,0,0-6.421,5.707,5.214,5.214,0,0,1-.445-.426A4.345,4.345,0,1,1,174.728,5.4,4.69,4.69,0,0,1,175.164,5.963Z" transform="translate(-167.165 -3.975)" fill="#a7eabf"/>
        </g>
        <g id="Group_1861" data-name="Group 1861">
          <g id="Group_1860" data-name="Group 1860">
            <path id="Path_4614" data-name="Path 4614" d="M164.311,7.63a4.544,4.544,0,1,1,6.417.308h0A4.554,4.554,0,0,1,164.311,7.63Zm.568-6.128a4.151,4.151,0,0,0,5.584,6.142h0A4.151,4.151,0,0,0,164.878,1.5Z" transform="translate(-163.128 -0.03)" fill="#333"/>
          </g>
        </g>
      </g>
    </g>
    <g id="Group_1864" data-name="Group 1864" transform="translate(9.597 2.552)">
      <path id="Path_4615" data-name="Path 4615" d="M206.577,56.15h0a.6.6,0,0,1-.416-.171l-1.013-1.013a.585.585,0,1,1,.827-.827l.6.6,2.388-2.388a.585.585,0,0,1,.827.827l-2.8,2.8A.566.566,0,0,1,206.577,56.15Z" transform="translate(-204.975 -52.175)" fill="#fc8a8a"/>
    </g>
    <g id="Group_1865" data-name="Group 1865" transform="translate(13.088 2.552)">
      <path id="Path_4616" data-name="Path 4616" d="M277.626,53.175l-.5.5a.582.582,0,0,0,0-.827.591.591,0,0,0-.827,0l.5-.5a.585.585,0,0,1,.827.827Z" transform="translate(-276.3 -52.175)" fill="#f96364"/>
    </g>
    <g id="Group_1866" data-name="Group 1866" transform="translate(9.601 4.369)">
      <path id="Path_4617" data-name="Path 4617" d="M207.46,90.91l-.372.372a.586.586,0,0,1-.827,0l-1.013-1.013a.582.582,0,0,1,0-.827.534.534,0,0,1,.235-.142.58.58,0,0,0,.142.6l1.013,1.013a.593.593,0,0,0,.416.171A.567.567,0,0,0,207.46,90.91Z" transform="translate(-205.075 -89.3)" fill="#fcb0b0"/>
    </g>
    <g id="Group_1868" data-name="Group 1868" transform="translate(9.401 2.356)">
      <g id="Group_1867" data-name="Group 1867">
        <path id="Path_4618" data-name="Path 4618" d="M202.219,52.312,201.206,51.3a.777.777,0,0,1,0-1.106.8.8,0,0,1,1.106,0l.46.46,2.247-2.247a.782.782,0,1,1,1.106,1.106l-2.8,2.8A.781.781,0,0,1,202.219,52.312Zm-.734-1.845a.387.387,0,0,0,0,.548l1.013,1.013a.4.4,0,0,0,.553,0l2.8-2.8a.387.387,0,0,0,0-.548.4.4,0,0,0-.553,0l-2.388,2.388a.193.193,0,0,1-.137.059h0a.178.178,0,0,1-.137-.059l-.6-.6A.388.388,0,0,0,201.485,50.467Z" transform="translate(-200.975 -48.175)" fill="#333"/>
      </g>
    </g>
  </g>
</svg>
