<svg xmlns="http://www.w3.org/2000/svg" width="24" height="24" viewBox="0 0 24 24">
  <g id="_9004828_cross_delete_remove_cancel_icon" data-name="9004828_cross_delete_remove_cancel_icon" transform="translate(0)">
    <g id="Icons" transform="translate(1 1)">
      <path id="Path_4580" data-name="Path 4580" d="M23,12A11,11,0,1,1,1,12a10.827,10.827,0,0,1,.29-2.5,11,11,0,0,1,21.42,0A10.827,10.827,0,0,1,23,12Z" transform="translate(-1 -1)" fill="#f6b445"/>
      <ellipse id="Ellipse_171" data-name="Ellipse 171" cx="10.71" cy="8.5" rx="10.71" ry="8.5" transform="translate(0.29)" fill="#ffd947"/>
    </g>
    <g id="Layer_4" data-name="Layer 4" transform="translate(0)">
      <path id="Path_4581" data-name="Path 4581" d="M12,0A12,12,0,1,0,24,12,12,12,0,0,0,12,0Zm0,22A10,10,0,1,1,22,12,10,10,0,0,1,12,22Z" transform="translate(0 0)"/>
      <path id="Path_4582" data-name="Path 4582" d="M16.707,7.293a1,1,0,0,0-1.414,0L12,10.586,8.707,7.293A1,1,0,1,0,7.293,8.707L10.586,12,7.293,15.293a1,1,0,1,0,1.414,1.414L12,13.414l3.293,3.293a1,1,0,1,0,1.414-1.414L13.414,12l3.293-3.293a1,1,0,0,0,0-1.414Z" transform="translate(0 0)"/>
    </g>
  </g>
</svg>
