<svg xmlns="http://www.w3.org/2000/svg" width="33.473" height="24.055" viewBox="0 0 33.473 24.055">
  <g id="_x30_6_Delivery_Truck" transform="translate(0)">
    <g id="Group_1849" data-name="Group 1849" transform="translate(0 0)">
      <g id="Group_1847" data-name="Group 1847" transform="translate(0)">
        <g id="Group_1846" data-name="Group 1846">
          <g id="Group_1822" data-name="Group 1822" transform="translate(0.197 0.197)">
            <rect id="Rectangle_14270" data-name="Rectangle 14270" width="22.554" height="17.241" fill="#ffd947"/>
          </g>
          <g id="Group_1823" data-name="Group 1823" transform="translate(0.198 0.197)">
            <rect id="Rectangle_14271" data-name="Rectangle 14271" width="1.292" height="17.241" fill="#f6b445"/>
          </g>
          <g id="Group_1824" data-name="Group 1824" transform="translate(21.459 0.197)">
            <rect id="Rectangle_14272" data-name="Rectangle 14272" width="1.292" height="17.241" fill="#f6b445"/>
          </g>
          <g id="Group_1825" data-name="Group 1825" transform="translate(22.75 3.942)">
            <path id="Path_4583" data-name="Path 4583" d="M357.943,145.962v6.648h-9.964v-13.5H351.1a1.877,1.877,0,0,1,1.328.548l4.969,4.972A1.88,1.88,0,0,1,357.943,145.962Z" transform="translate(-347.979 -139.114)" fill="#fff"/>
          </g>
          <g id="Group_1826" data-name="Group 1826" transform="translate(22.75 3.942)">
            <path id="Path_4584" data-name="Path 4584" d="M357.943,145.962v6.648h-9.964v-13.5H351.1a1.877,1.877,0,0,1,1.328.548l4.969,4.972A1.88,1.88,0,0,1,357.943,145.962Z" transform="translate(-347.979 -139.114)" fill="#fff"/>
          </g>
          <g id="Group_1827" data-name="Group 1827" transform="translate(22.749 3.941)">
            <path id="Path_4585" data-name="Path 4585" d="M357.938,145.95V152.6H357v-5.65a1.878,1.878,0,0,0-.549-1.328l-4.97-4.972a1.877,1.877,0,0,0-1.328-.549h-2.182v-1h3.116a1.878,1.878,0,0,1,1.328.549l4.97,4.972A1.88,1.88,0,0,1,357.938,145.95Z" transform="translate(-347.972 -139.1)" fill="#fafafa"/>
          </g>
          <g id="Group_1828" data-name="Group 1828" transform="translate(24.042 5.234)">
            <path id="Path_4586" data-name="Path 4586" d="M374.841,164.691h-7.1v-5.814h1.824a.592.592,0,0,1,.411.165l5.091,5.1A.321.321,0,0,1,374.841,164.691Z" transform="translate(-367.742 -158.877)" fill="#7ad2fa"/>
          </g>
          <g id="Group_1831" data-name="Group 1831" transform="translate(24.086 5.6)">
            <g id="Group_1829" data-name="Group 1829">
              <path id="Path_4587" data-name="Path 4587" d="M372.717,166.394l-1.552,3.534h-2.751l2.394-5.448Z" transform="translate(-368.414 -164.48)" fill="#a5e1fb"/>
            </g>
            <g id="Group_1830" data-name="Group 1830" transform="translate(3.363 2.339)">
              <path id="Path_4588" data-name="Path 4588" d="M421.779,200.819l-1.121,2.549h-.8l1.365-3.108Z" transform="translate(-419.855 -200.26)" fill="#a5e1fb"/>
            </g>
          </g>
          <g id="Group_1832" data-name="Group 1832" transform="translate(23.845 5.037)">
            <path id="Path_4589" data-name="Path 4589" d="M372.026,162.073h-7.1a.2.2,0,0,1-.2-.2v-5.814a.2.2,0,0,1,.2-.2h1.824a.789.789,0,0,1,.547.22l5.094,5.1a.518.518,0,0,1-.367.884Zm-6.9-.394h6.9a.12.12,0,0,0,.115-.075.122.122,0,0,0-.027-.137l-5.09-5.1a.4.4,0,0,0-.272-.107h-1.627Z" transform="translate(-364.731 -155.865)" fill="#333"/>
          </g>
          <g id="Group_1834" data-name="Group 1834" transform="translate(29.826 13.443)">
            <g id="Group_1833" data-name="Group 1833">
              <path id="Path_4590" data-name="Path 4590" d="M459.107,284.446v1.968h-2.6a.29.29,0,0,1-.29-.29v-.651a.316.316,0,0,1,.083-.208c.269-.266.452-.449.712-.712a.38.38,0,0,1,.257-.107Z" transform="translate(-456.22 -284.446)" fill="#fee9b4"/>
            </g>
          </g>
          <g id="Group_1835" data-name="Group 1835" transform="translate(0.197 17.438)">
            <path id="Path_4591" data-name="Path 4591" d="M36.094,346.048v1a.5.5,0,0,1-.5.5H3.514a.5.5,0,0,1-.5-.5v-1.5H35.6A.5.5,0,0,1,36.094,346.048Z" transform="translate(-3.015 -345.549)" fill="#d3d9d9"/>
          </g>
          <g id="Group_1836" data-name="Group 1836" transform="translate(0.198 17.438)">
            <path id="Path_4592" data-name="Path 4592" d="M4.817,347.545H3.526a.5.5,0,0,1-.5-.5v-1.5H4.319v1.5A.5.5,0,0,0,4.817,347.545Z" transform="translate(-3.027 -345.55)" fill="#fafafa"/>
          </g>
          <g id="Group_1837" data-name="Group 1837" transform="translate(31.486 17.438)">
            <path id="Path_4593" data-name="Path 4593" d="M483.4,346.049v1a.5.5,0,0,1-.5.5h-1.292a.5.5,0,0,0,.5-.5v-1a.5.5,0,0,0-.5-.5H482.9A.5.5,0,0,1,483.4,346.049Z" transform="translate(-481.605 -345.55)" fill="#a8b2b4"/>
          </g>
          <g id="Group_1842" data-name="Group 1842" transform="translate(1.319 14.811)">
            <g id="Group_1838" data-name="Group 1838" transform="translate(21.431 1.084)">
              <circle id="Ellipse_172" data-name="Ellipse 172" cx="3.537" cy="3.537" r="3.537" fill="#a8b2b4"/>
            </g>
            <g id="Group_1839" data-name="Group 1839" transform="translate(0 0)">
              <circle id="Ellipse_173" data-name="Ellipse 173" cx="3.537" cy="3.537" r="3.537" transform="translate(0 6.536) rotate(-67.5)" fill="#a8b2b4"/>
            </g>
            <g id="Group_1840" data-name="Group 1840" transform="translate(23.532 3.185)">
              <path id="Path_4594" data-name="Path 4594" d="M381.553,356.958a1.437,1.437,0,1,1,1.436-1.437A1.438,1.438,0,0,1,381.553,356.958Z" transform="translate(-380.116 -354.085)" fill="#fff"/>
            </g>
            <g id="Group_1841" data-name="Group 1841" transform="translate(3.185 3.185)">
              <path id="Path_4595" data-name="Path 4595" d="M70.331,356.958a1.437,1.437,0,1,1,1.437-1.437A1.438,1.438,0,0,1,70.331,356.958Z" transform="translate(-68.894 -354.085)" fill="#fff"/>
            </g>
          </g>
          <g id="Group_1845" data-name="Group 1845" transform="translate(2.937 16.429)">
            <g id="Group_1843" data-name="Group 1843" transform="translate(20.356 0)">
              <path id="Path_4596" data-name="Path 4596" d="M362.826,333.115a3.532,3.532,0,0,1-6.533,1.87,3.535,3.535,0,0,0,4.858-4.874A3.527,3.527,0,0,1,362.826,333.115Z" transform="translate(-356.293 -330.111)" fill="#7c8b8e"/>
            </g>
            <g id="Group_1844" data-name="Group 1844">
              <path id="Path_4597" data-name="Path 4597" d="M51.472,333.114a3.536,3.536,0,0,1-6.544,1.864,3.494,3.494,0,0,0,1.859.53,3.541,3.541,0,0,0,3.54-3.54,3.494,3.494,0,0,0-.53-1.859A3.528,3.528,0,0,1,51.472,333.114Z" transform="translate(-44.928 -330.11)" fill="#7c8b8e"/>
            </g>
          </g>
          <path id="Path_4598" data-name="Path 4598" d="M32.912,96.077V89.612a2.089,2.089,0,0,0-.608-1.467l-4.969-4.972a2.061,2.061,0,0,0-1.468-.606H22.949V79.019a.2.2,0,0,0-.2-.2H.2a.2.2,0,0,0-.2.2V97.756a.7.7,0,0,0,.7.7h1.52a3.729,3.729,0,0,0,7.449,0h12.9a3.729,3.729,0,0,0,7.449,0h2.766a.7.7,0,0,0,.7-.7v-1A.7.7,0,0,0,32.912,96.077ZM22.949,82.961h2.919a1.669,1.669,0,0,1,1.189.49l4.969,4.972a1.692,1.692,0,0,1,.493,1.189v2.457h-1.64a.579.579,0,0,0-.4.165c-.259.262-.442.445-.719.72a.511.511,0,0,0-.132.338v.651a.488.488,0,0,0,.487.487h2.4v1.633H29.306a3.721,3.721,0,0,0-6.034,0h-.323Zm9.57,9.5v1.574h-2.4a.093.093,0,0,1-.093-.093v-.651a.115.115,0,0,1,.024-.068c.269-.266.453-.45.707-.707a.19.19,0,0,1,.124-.055ZM.395,79.216h22.16V96.063H8.959a3.721,3.721,0,0,0-6.034,0H.395V79.216ZM.7,98.058a.3.3,0,0,1-.3-.3v-1.3H2.67a3.707,3.707,0,0,0-.453,1.6ZM5.942,101.6a3.341,3.341,0,1,1,3.34-3.34A3.344,3.344,0,0,1,5.942,101.6Zm3.271-5.138h13.8a3.707,3.707,0,0,0-.453,1.6H9.666A3.707,3.707,0,0,0,9.213,96.457ZM26.289,101.6a3.341,3.341,0,1,1,3.34-3.34A3.344,3.344,0,0,1,26.289,101.6Zm6.791-3.839a.3.3,0,0,1-.3.3H30.013a3.707,3.707,0,0,0-.453-1.6h3.219a.3.3,0,0,1,.3.3v1Z" transform="translate(-0.001 -78.822)" fill="#333"/>
        </g>
      </g>
      <g id="Group_1848" data-name="Group 1848" transform="translate(23.845 12.14)">
        <path id="Path_4599" data-name="Path 4599" d="M366.555,264.9h-1.628a.2.2,0,1,1,0-.394h1.628a.2.2,0,1,1,0,.394Z" transform="translate(-364.73 -264.508)" fill="#333"/>
      </g>
    </g>
  </g>
</svg>
