<svg xmlns="http://www.w3.org/2000/svg" width="592.522" height="441.5" viewBox="0 0 592.522 441.5">
  <g id="Done-rafiki" transform="translate(0 -55)">
    <g id="freepik--background-complete--inject-7" transform="translate(0 55)">
      <rect id="Rectangle_14327" data-name="Rectangle 14327" width="592.522" height="0.296" transform="translate(0 387.983)" fill="#ebebeb"/>
      <rect id="Rectangle_14328" data-name="Rectangle 14328" width="39.249" height="0.296" transform="translate(493.902 407.051)" fill="#ebebeb"/>
      <rect id="Rectangle_14329" data-name="Rectangle 14329" width="10.298" height="0.296" transform="translate(382.212 410.274)" fill="#ebebeb"/>
      <rect id="Rectangle_14330" data-name="Rectangle 14330" width="22.741" height="0.296" transform="translate(469.976 396.053)" fill="#ebebeb"/>
      <rect id="Rectangle_14331" data-name="Rectangle 14331" width="51.182" height="0.296" transform="translate(62.167 398.044)" fill="#ebebeb"/>
      <rect id="Rectangle_14332" data-name="Rectangle 14332" width="7.501" height="0.296" transform="translate(123.908 398.044)" fill="#ebebeb"/>
      <rect id="Rectangle_14333" data-name="Rectangle 14333" width="111.015" height="0.296" transform="translate(155.798 403.045)" fill="#ebebeb"/>
      <path id="Path_4897" data-name="Path 4897" d="M273.785,390.13H44.965a6.767,6.767,0,0,1-6.755-6.767V61.707A6.767,6.767,0,0,1,44.965,55h228.82a6.767,6.767,0,0,1,6.767,6.767v321.6A6.767,6.767,0,0,1,273.785,390.13ZM44.965,55.237a6.47,6.47,0,0,0-6.458,6.47V383.364a6.47,6.47,0,0,0,6.458,6.47h228.82a6.482,6.482,0,0,0,6.47-6.47V61.707a6.482,6.482,0,0,0-6.47-6.47Z" transform="translate(7.071 -55)" fill="#ebebeb"/>
      <path id="Path_4898" data-name="Path 4898" d="M490.1,390.13H261.267a6.778,6.778,0,0,1-6.767-6.767V61.707A6.778,6.778,0,0,1,261.267,55H490.1a6.767,6.767,0,0,1,6.743,6.707V383.364A6.767,6.767,0,0,1,490.1,390.13ZM261.267,55.237a6.482,6.482,0,0,0-6.47,6.47V383.364a6.482,6.482,0,0,0,6.47,6.47H490.1a6.482,6.482,0,0,0,6.47-6.47V61.707a6.482,6.482,0,0,0-6.47-6.47Z" transform="translate(47.094 -55)" fill="#ebebeb"/>
      <rect id="Rectangle_14334" data-name="Rectangle 14334" width="84.434" height="286.437" transform="translate(110.493 12.739)" fill="#fafafa"/>
      <path id="Path_4899" data-name="Path 4899" d="M159.248,65.75h-4.93L124.87,352.187h4.93Z" transform="translate(23.106 -53.011)" fill="#fafafa"/>
      <rect id="Rectangle_14335" data-name="Rectangle 14335" width="83.486" height="2.524" transform="translate(109.948 13.841)" fill="#e0e0e0"/>
      <rect id="Rectangle_14336" data-name="Rectangle 14336" width="83.486" height="5.404" transform="translate(109.948 296.664)" fill="#ebebeb"/>
      <rect id="Rectangle_14337" data-name="Rectangle 14337" width="78.888" height="0.237" transform="translate(113.16 301.831)" fill="#ebebeb"/>
      <path id="Path_4900" data-name="Path 4900" d="M96.228,67.233h78.888V355.223h4.728V63.69H91.5V355.223h4.728Z" transform="translate(16.931 -53.392)" fill="#ebebeb"/>
      <rect id="Rectangle_14338" data-name="Rectangle 14338" width="84.434" height="286.437" transform="translate(204.456 12.739)" fill="#fafafa"/>
      <path id="Path_4901" data-name="Path 4901" d="M232.811,65.75H205.9L176.45,352.187h26.912Z" transform="translate(32.651 -53.011)" fill="#fafafa"/>
      <rect id="Rectangle_14339" data-name="Rectangle 14339" width="85.856" height="2.524" transform="translate(203.91 13.841)" fill="#e0e0e0"/>
      <rect id="Rectangle_14340" data-name="Rectangle 14340" width="85.856" height="5.404" transform="translate(203.91 296.664)" fill="#ebebeb"/>
      <rect id="Rectangle_14341" data-name="Rectangle 14341" width="78.888" height="0.237" transform="translate(207.122 301.831)" fill="#ebebeb"/>
      <path id="Path_4902" data-name="Path 4902" d="M175.518,67.233h78.888V355.223h4.716V63.69H170.79V355.223h4.728Z" transform="translate(31.604 -53.392)" fill="#ebebeb"/>
      <rect id="Rectangle_14342" data-name="Rectangle 14342" width="82.064" height="286.437" transform="translate(298.406 12.739)" fill="#fafafa"/>
      <path id="Path_4903" data-name="Path 4903" d="M296.418,65.75h-4.93L262.04,352.187h4.93Z" transform="translate(48.489 -53.011)" fill="#fafafa"/>
      <rect id="Rectangle_14343" data-name="Rectangle 14343" width="83.486" height="2.524" transform="translate(297.873 13.841)" fill="#e0e0e0"/>
      <rect id="Rectangle_14344" data-name="Rectangle 14344" width="83.486" height="5.404" transform="translate(297.873 296.664)" fill="#ebebeb"/>
      <rect id="Rectangle_14345" data-name="Rectangle 14345" width="78.888" height="0.237" transform="translate(301.084 301.831)" fill="#ebebeb"/>
      <path id="Path_4904" data-name="Path 4904" d="M254.808,67.233h78.876V355.223h4.728V63.69H250.08V355.223h4.728Z" transform="translate(46.276 -53.392)" fill="#ebebeb"/>
      <rect id="Rectangle_14346" data-name="Rectangle 14346" width="84.434" height="286.437" transform="translate(392.368 12.739)" fill="#fafafa"/>
      <path id="Path_4905" data-name="Path 4905" d="M404.183,65.75H377.27L347.81,352.187h26.924Z" transform="translate(64.36 -53.011)" fill="#fafafa"/>
      <rect id="Rectangle_14347" data-name="Rectangle 14347" width="83.486" height="2.524" transform="translate(391.823 13.841)" fill="#e0e0e0"/>
      <rect id="Rectangle_14348" data-name="Rectangle 14348" width="83.486" height="5.404" transform="translate(391.823 296.664)" fill="#ebebeb"/>
      <path id="Path_4906" data-name="Path 4906" d="M334.086,67.233h78.888V355.223H417.7V63.69H329.37V355.223h4.716Z" transform="translate(60.948 -53.392)" fill="#ebebeb"/>
      <rect id="Rectangle_14349" data-name="Rectangle 14349" width="78.888" height="0.237" transform="translate(395.034 301.831)" fill="#ebebeb"/>
      <rect id="Rectangle_14350" data-name="Rectangle 14350" width="36.653" height="63.388" transform="translate(138.069 233.288)" fill="#ebebeb"/>
      <path id="Path_4907" data-name="Path 4907" d="M145.025,244.38v15.9H122.45v-15.9Z" transform="translate(22.659 -19.956)" fill="#ebebeb"/>
      <rect id="Rectangle_14351" data-name="Rectangle 14351" width="4.693" height="4.693" transform="translate(172.376 240.327) rotate(180)" fill="#fafafa"/>
      <rect id="Rectangle_14352" data-name="Rectangle 14352" width="4.693" height="4.693" transform="translate(163.299 240.327) rotate(180)" fill="#fafafa"/>
      <rect id="Rectangle_14353" data-name="Rectangle 14353" width="4.693" height="4.693" transform="translate(154.21 240.327) rotate(180)" fill="#fafafa"/>
      <rect id="Rectangle_14354" data-name="Rectangle 14354" width="4.693" height="4.693" transform="translate(145.12 240.327) rotate(180)" fill="#f0f0f0"/>
      <rect id="Rectangle_14355" data-name="Rectangle 14355" width="4.693" height="4.693" transform="translate(172.376 248.847) rotate(180)" fill="#f0f0f0"/>
      <rect id="Rectangle_14356" data-name="Rectangle 14356" width="4.693" height="4.693" transform="translate(163.299 248.847) rotate(180)" fill="#f0f0f0"/>
      <rect id="Rectangle_14357" data-name="Rectangle 14357" width="4.693" height="4.693" transform="translate(154.21 248.847) rotate(180)" fill="#fafafa"/>
      <rect id="Rectangle_14358" data-name="Rectangle 14358" width="4.693" height="4.693" transform="translate(145.12 248.847) rotate(180)" fill="#fafafa"/>
      <rect id="Rectangle_14359" data-name="Rectangle 14359" width="4.693" height="4.693" transform="translate(172.376 257.38) rotate(180)" fill="#f0f0f0"/>
      <rect id="Rectangle_14360" data-name="Rectangle 14360" width="4.693" height="4.693" transform="translate(163.299 257.38) rotate(180)" fill="#fafafa"/>
      <rect id="Rectangle_14361" data-name="Rectangle 14361" width="4.693" height="4.693" transform="translate(154.21 257.38) rotate(180)" fill="#fafafa"/>
      <rect id="Rectangle_14362" data-name="Rectangle 14362" width="4.693" height="4.693" transform="translate(163.299 232.956) rotate(180)" fill="#fafafa"/>
      <rect id="Rectangle_14363" data-name="Rectangle 14363" width="4.693" height="4.693" transform="translate(154.21 232.956) rotate(180)" fill="#f0f0f0"/>
      <rect id="Rectangle_14364" data-name="Rectangle 14364" width="4.693" height="4.693" transform="translate(145.12 257.38) rotate(180)" fill="#f0f0f0"/>
      <rect id="Rectangle_14365" data-name="Rectangle 14365" width="4.693" height="4.693" transform="translate(172.376 265.912) rotate(180)" fill="#fafafa"/>
      <rect id="Rectangle_14366" data-name="Rectangle 14366" width="4.693" height="4.693" transform="translate(163.299 265.912) rotate(180)" fill="#f0f0f0"/>
      <rect id="Rectangle_14367" data-name="Rectangle 14367" width="4.693" height="4.693" transform="translate(154.21 265.912) rotate(180)" fill="#f0f0f0"/>
      <rect id="Rectangle_14368" data-name="Rectangle 14368" width="4.693" height="4.693" transform="translate(145.12 265.912) rotate(180)" fill="#fafafa"/>
      <rect id="Rectangle_14369" data-name="Rectangle 14369" width="4.693" height="4.693" transform="translate(172.376 274.444) rotate(180)" fill="#f0f0f0"/>
      <rect id="Rectangle_14370" data-name="Rectangle 14370" width="4.693" height="4.693" transform="translate(163.299 274.444) rotate(180)" fill="#fafafa"/>
      <rect id="Rectangle_14371" data-name="Rectangle 14371" width="4.693" height="4.693" transform="translate(154.21 274.444) rotate(180)" fill="#fafafa"/>
      <rect id="Rectangle_14372" data-name="Rectangle 14372" width="4.693" height="4.693" transform="translate(145.12 274.444) rotate(180)" fill="#f0f0f0"/>
      <rect id="Rectangle_14373" data-name="Rectangle 14373" width="4.693" height="4.693" transform="translate(172.376 282.965) rotate(180)" fill="#f0f0f0"/>
      <rect id="Rectangle_14374" data-name="Rectangle 14374" width="4.693" height="4.693" transform="translate(163.299 282.965) rotate(180)" fill="#fafafa"/>
      <rect id="Rectangle_14375" data-name="Rectangle 14375" width="4.693" height="4.693" transform="translate(154.21 282.965) rotate(180)" fill="#f0f0f0"/>
      <rect id="Rectangle_14376" data-name="Rectangle 14376" width="4.693" height="4.693" transform="translate(145.12 282.965) rotate(180)" fill="#fafafa"/>
      <rect id="Rectangle_14377" data-name="Rectangle 14377" width="4.693" height="4.693" transform="translate(172.376 291.497) rotate(180)" fill="#fafafa"/>
      <rect id="Rectangle_14378" data-name="Rectangle 14378" width="4.693" height="4.693" transform="translate(163.299 291.497) rotate(180)" fill="#fafafa"/>
      <rect id="Rectangle_14379" data-name="Rectangle 14379" width="4.693" height="4.693" transform="translate(154.21 291.497) rotate(180)" fill="#f0f0f0"/>
      <rect id="Rectangle_14380" data-name="Rectangle 14380" width="4.693" height="4.693" transform="translate(145.12 291.497) rotate(180)" fill="#f0f0f0"/>
      <rect id="Rectangle_14381" data-name="Rectangle 14381" width="32.838" height="40.291" transform="translate(400.106 256.372)" fill="#f0f0f0"/>
      <path id="Path_4908" data-name="Path 4908" d="M340.04,275.12h11.839v4.2H340.04Z" transform="translate(62.922 -14.268)" fill="#e6e6e6"/>
      <path id="Path_4909" data-name="Path 4909" d="M340.04,281.99h11.839V286.2H340.04Z" transform="translate(62.922 -12.997)" fill="#fafafa"/>
      <path id="Path_4910" data-name="Path 4910" d="M340.04,288.86h11.839v4.207H340.04Z" transform="translate(62.922 -11.726)" fill="#e6e6e6"/>
      <path id="Path_4911" data-name="Path 4911" d="M340.04,295.73h11.839v4.207H340.04Z" transform="translate(62.922 -10.454)" fill="#fafafa"/>
      <path id="Path_4912" data-name="Path 4912" d="M352.93,275.12h11.839v4.2H352.93Z" transform="translate(65.307 -14.268)" fill="#fafafa"/>
      <path id="Path_4913" data-name="Path 4913" d="M352.93,281.99h11.839V286.2H352.93Z" transform="translate(65.307 -12.997)" fill="#fafafa"/>
      <path id="Path_4914" data-name="Path 4914" d="M352.93,288.86h11.839v4.207H352.93Z" transform="translate(65.307 -11.726)" fill="#e6e6e6"/>
      <path id="Path_4915" data-name="Path 4915" d="M352.93,295.73h11.839v4.207H352.93Z" transform="translate(65.307 -10.454)" fill="#fafafa"/>
      <rect id="Rectangle_14382" data-name="Rectangle 14382" width="29.839" height="25.04" transform="translate(244.866 271.636)" fill="#f0f0f0"/>
      <rect id="Rectangle_14383" data-name="Rectangle 14383" width="3.816" height="3.816" transform="translate(272.797 278.58) rotate(180)" fill="#fafafa"/>
      <rect id="Rectangle_14384" data-name="Rectangle 14384" width="3.816" height="3.816" transform="translate(265.402 278.58) rotate(180)" fill="#fafafa"/>
      <rect id="Rectangle_14385" data-name="Rectangle 14385" width="3.816" height="3.816" transform="translate(257.996 278.58) rotate(180)" fill="#fafafa"/>
      <rect id="Rectangle_14386" data-name="Rectangle 14386" width="3.816" height="3.816" transform="translate(250.601 278.58) rotate(180)" fill="#fafafa"/>
      <rect id="Rectangle_14387" data-name="Rectangle 14387" width="3.816" height="3.816" transform="translate(272.797 285.513) rotate(180)" fill="#fafafa"/>
      <rect id="Rectangle_14388" data-name="Rectangle 14388" width="3.816" height="3.816" transform="translate(265.402 285.513) rotate(180)" fill="#fafafa"/>
      <rect id="Rectangle_14389" data-name="Rectangle 14389" width="3.816" height="3.816" transform="translate(257.996 285.513) rotate(180)" fill="#fafafa"/>
      <rect id="Rectangle_14390" data-name="Rectangle 14390" width="3.816" height="3.816" transform="translate(250.601 285.513) rotate(180)" fill="#e6e6e6"/>
      <rect id="Rectangle_14391" data-name="Rectangle 14391" width="3.816" height="3.816" transform="translate(272.797 292.457) rotate(180)" fill="#e6e6e6"/>
      <rect id="Rectangle_14392" data-name="Rectangle 14392" width="3.816" height="3.816" transform="translate(265.402 292.457) rotate(180)" fill="#e6e6e6"/>
      <rect id="Rectangle_14393" data-name="Rectangle 14393" width="3.816" height="3.816" transform="translate(257.996 292.457) rotate(180)" fill="#fafafa"/>
      <rect id="Rectangle_14394" data-name="Rectangle 14394" width="3.816" height="3.816" transform="translate(250.601 292.457) rotate(180)" fill="#e6e6e6"/>
      <rect id="Rectangle_14395" data-name="Rectangle 14395" width="29.839" height="43.55" transform="translate(210.985 253.125)" fill="#f0f0f0"/>
      <rect id="Rectangle_14396" data-name="Rectangle 14396" width="11.222" height="10.76" transform="translate(227.694 255.033)" fill="#fafafa"/>
      <rect id="Rectangle_14397" data-name="Rectangle 14397" width="11.222" height="10.76" transform="translate(212.893 255.033)" fill="#fafafa"/>
      <rect id="Rectangle_14398" data-name="Rectangle 14398" width="11.222" height="10.76" transform="translate(227.694 268.91)" fill="#fafafa"/>
      <rect id="Rectangle_14399" data-name="Rectangle 14399" width="11.222" height="10.76" transform="translate(212.893 268.91)" fill="#fafafa"/>
      <rect id="Rectangle_14400" data-name="Rectangle 14400" width="11.222" height="10.76" transform="translate(227.694 282.787)" fill="#fafafa"/>
      <rect id="Rectangle_14401" data-name="Rectangle 14401" width="11.222" height="10.76" transform="translate(212.893 282.787)" fill="#fafafa"/>
    </g>
    <g id="freepik--Shadow--inject-7" transform="translate(66.493 469.67)">
      <ellipse id="freepik--path--inject-7" cx="229.768" cy="13.415" rx="229.768" ry="13.415" fill="#fafafa"/>
    </g>
    <g id="freepik--Sheet--inject-7" transform="translate(313.634 84.164)">
      <path id="Path_4916" data-name="Path 4916" d="M477.861,79.61V340.6l-31.4,31.4H264.66V79.61Z" transform="translate(-264.66 -79.61)" fill="#36a656"/>
      <path id="Path_4917" data-name="Path 4917" d="M477.861,79.61V340.6l-31.4,31.4H264.66V79.61Z" transform="translate(-264.66 -79.61)" fill="#fff" opacity="0.8"/>
      <path id="Path_4918" data-name="Path 4918" d="M418.07,331.109V300.63h31.4l-30.787,30.787" transform="translate(-236.272 -38.712)" opacity="0.2"/>
      <path id="Path_4919" data-name="Path 4919" d="M342.409,101.975h-58.8a3.117,3.117,0,0,1-3.117-3.117h0a3.117,3.117,0,0,1,3.117-3.129h58.8a3.129,3.129,0,0,1,3.117,3.129h0A3.117,3.117,0,0,1,342.409,101.975Z" transform="translate(-261.731 -76.627)" opacity="0.1"/>
      <path id="Path_4920" data-name="Path 4920" d="M445.362,123.315H303.607a3.117,3.117,0,0,1-3.117-3.129h0a3.117,3.117,0,0,1,3.117-3.117H445.362a3.117,3.117,0,0,1,3.117,3.117h0a3.128,3.128,0,0,1-3.117,3.129Z" transform="translate(-258.03 -72.678)" opacity="0.1"/>
      <path id="Path_4921" data-name="Path 4921" d="M449.062,133.685H283.607a3.117,3.117,0,0,1-3.117-3.117h0a3.117,3.117,0,0,1,3.117-3.129H449.062a3.129,3.129,0,0,1,3.117,3.129h0a3.117,3.117,0,0,1-3.117,3.117Z" transform="translate(-261.731 -70.759)" opacity="0.1"/>
      <path id="Path_4922" data-name="Path 4922" d="M449.062,145.405H283.607a3.117,3.117,0,0,1-3.117-3.129h0a3.117,3.117,0,0,1,3.117-3.117H449.062a3.117,3.117,0,0,1,3.117,3.117h0A3.129,3.129,0,0,1,449.062,145.405Z" transform="translate(-261.731 -68.591)" opacity="0.1"/>
      <path id="Path_4923" data-name="Path 4923" d="M449.062,157.113H283.607A3.117,3.117,0,0,1,280.49,154h0a3.117,3.117,0,0,1,3.117-3.117H449.062A3.117,3.117,0,0,1,452.179,154h0a3.117,3.117,0,0,1-3.117,3.117Z" transform="translate(-261.731 -66.422)" opacity="0.1"/>
      <path id="Path_4924" data-name="Path 4924" d="M449.062,168.833H283.607a3.117,3.117,0,0,1-3.117-3.117h0a3.1,3.1,0,0,1,3.117-3.117H449.062a3.117,3.117,0,0,1,3.117,3.117h0a3.117,3.117,0,0,1-3.117,3.117Z" transform="translate(-261.731 -64.253)" opacity="0.1"/>
      <path id="Path_4925" data-name="Path 4925" d="M449.062,180.555H283.607a3.117,3.117,0,0,1-3.117-3.117h0a3.117,3.117,0,0,1,3.117-3.129H449.062a3.129,3.129,0,0,1,3.117,3.129h0a3.117,3.117,0,0,1-3.117,3.117Z" transform="translate(-261.731 -62.086)" opacity="0.1"/>
      <rect id="Rectangle_14402" data-name="Rectangle 14402" width="171.701" height="6.245" rx="2.63" transform="translate(18.759 126.112)" opacity="0.1"/>
      <path id="Path_4926" data-name="Path 4926" d="M449.062,203.973H283.607a3.117,3.117,0,0,1-3.117-3.117h0a3.117,3.117,0,0,1,3.117-3.117H449.062a3.117,3.117,0,0,1,3.117,3.117h0a3.117,3.117,0,0,1-3.117,3.117Z" transform="translate(-261.731 -57.751)" opacity="0.1"/>
      <path id="Path_4927" data-name="Path 4927" d="M449.062,215.7H283.607a3.117,3.117,0,0,1-3.117-3.117h0a3.1,3.1,0,0,1,3.117-3.117H449.062a3.117,3.117,0,0,1,3.117,3.117h0a3.117,3.117,0,0,1-3.117,3.117Z" transform="translate(-261.731 -55.58)" opacity="0.1"/>
      <path id="Path_4928" data-name="Path 4928" d="M449.062,227.425H283.607a3.117,3.117,0,0,1-3.117-3.117h0a3.117,3.117,0,0,1,3.117-3.129H449.062a3.129,3.129,0,0,1,3.117,3.129h0a3.117,3.117,0,0,1-3.117,3.117Z" transform="translate(-261.731 -53.413)" opacity="0.1"/>
      <path id="Path_4929" data-name="Path 4929" d="M449.062,239.145H283.607a3.117,3.117,0,0,1-3.117-3.129h0a3.117,3.117,0,0,1,3.117-3.117H449.062a3.117,3.117,0,0,1,3.117,3.117h0A3.128,3.128,0,0,1,449.062,239.145Z" transform="translate(-261.731 -51.245)" opacity="0.1"/>
      <path id="Path_4930" data-name="Path 4930" d="M354.259,250.853H283.607a3.117,3.117,0,0,1-3.117-3.117h0a3.117,3.117,0,0,1,3.117-3.117h70.652a3.117,3.117,0,0,1,3.117,3.117h0a3.117,3.117,0,0,1-3.117,3.117Z" transform="translate(-261.731 -49.076)" opacity="0.1"/>
      <path id="Path_4931" data-name="Path 4931" d="M436.9,135.9l-.225-.19c-.64-.486-1.007-.32-1.3-1.256-.213-.675,0-1.434-.249-2.133a29.5,29.5,0,0,0-1.932-3.484l-2.915-5.25a5.036,5.036,0,0,0-6.838-1.943L396.593,136.6c-.107.9-.853,1.517-1.007,2.37a1.481,1.481,0,0,0,.45,1.4,1.387,1.387,0,0,1-.83-.3c-1.6-.889-2.026-1.6-3.674-.7-.711.379-1.41.782-2.109,1.185l-7.11,3.97-22.279,12.407-26.071,14.552-21.722,12.1c-2.963,1.647-6.553,3.093-9.2,5.19.735.379.865.96.213,1.529l-1.185,1.078c0,.3.427.3.7.178l1.469-.628a14.87,14.87,0,0,1-3.638,3.306,29.626,29.626,0,0,1-7.442,3.057l1.256-1.576c.095-.13.213-.3.13-.45s-.237-.166-.379-.178c-.628-.071-1.256,0-1.718-.462-4.053,2.37-8.3,4.622-12.419,6.921a5.036,5.036,0,0,0-1.943,6.838l27.066,48.587a5.013,5.013,0,0,0,6.826,1.943l7.122-4.017c0-.841.664-1.778.166-2.548a.675.675,0,0,1-.13-.32c0-.154.142-.273.273-.356a5.072,5.072,0,0,1,2.429-.782c.3,0,.687.13.64.415,0-.261,1.529-.806,1.778-.889.118.64-.32,1.327.427,1.458s1.884-1.185,2.37-1.422l7.11-3.97,22.516-12.526,24.7-13.758,16.413-9.149c.593-.344,1.292-.747,1.861-1.031a5.5,5.5,0,0,1,1.517-2.868c1.185-.818,3.057.083,4.041-1.078.19-.225.308-.5.474-.735a3.946,3.946,0,0,1,1.185-.936,1.861,1.861,0,0,1,1-.391c.355,0,.735.3.687.652,2.441-.569,4.645-2.216,6.8-3.437.782-.438,7.644-3.662,7.62-4.171-.095-1.576.865-2.927.818-4.551,0-.308-.6-2.37-.332-2.524-6.162,3.674-12.561,7.015-18.842,10.5-.213.13-1.019.4-1.185.64,0,0-.059.107-.083.166l-.178.391v.095a22.333,22.333,0,0,1-.9,2.37c0,.107-1.339,1.766-1.446,1.375-.521-1.908-1.185-2.2-2.643-1.422l-2.086,1.185-6.624,3.685-22.314,12.443-26.3,14.647-21.911,12.206-9.184,5.108q-2.749-4.977-5.534-9.943l-3.555-6.387a7.242,7.242,0,0,0-1.564-2.37c-.51-.379-1.375-.284-1.825-.628-1.1-.841-1.9-2.37-2.939-3.354-.711-.664-1.789-2.654-1.493-3.757.355.142.711.3,1.067.4a3.7,3.7,0,0,1,.119-2.2c-3.555-5.984-6.826-12.241-10.227-18.356l-.225-.391,8.3-4.622,6.056-3.377a20.977,20.977,0,0,0,3.555-1.955c.77-.664,1.552-1.493,2.37-2.2a8.627,8.627,0,0,1,1.778-1.043l2.24-1.09a.841.841,0,0,1,.379-.119,1.565,1.565,0,0,1,.391.095c1.185.249,4.124-1.943,5.19-2.536l6.9-3.84,20.809-11.6,25.929-14.434L393.429,145.2l20.88-11.625,10.665-5.925.5-.273,11.53,20.7a7.324,7.324,0,0,0,3.259,3.223c.474.154,1.007.486.948.972s-.77.889-.6,1.386,1.078.308,1.292.758-.367,1.185-.3,1.8a7.112,7.112,0,0,0,1.078,2.05l3.354,6.032c1.872,3.342,3.733,6.7,5.617,10.073l-20.5,11.424a1.006,1.006,0,0,1,.249.3l.107.273a8.73,8.73,0,0,1,1.185.521,1.019,1.019,0,0,1,.521.924,1.043,1.043,0,0,1-.545.9l-1.256.711a1.375,1.375,0,0,1-1.078,1.126,2.629,2.629,0,0,1-.438,0,1.067,1.067,0,0,1-.877.178,1.09,1.09,0,0,1-.735-1.315,1.6,1.6,0,0,1,.19-.344,1.067,1.067,0,0,1,.071-1.1h-.379a2.21,2.21,0,0,1-.6-.178,5.925,5.925,0,0,0-2.37,2.8.32.32,0,0,0-.071.225c0,.166.261.178.415.249.355.166.273.687.095,1.031s-.391.782-.154,1.09a2.229,2.229,0,0,0,.3.284c.51.581-.273,2.263.972,1.576a1.481,1.481,0,0,1,.154-1.078,1.588,1.588,0,0,1,.912-.675,14.859,14.859,0,0,1,2.809-.4l24.708-13.818a5.036,5.036,0,0,0,1.943-6.838l-.142-.249-11.163-20.039-6.447-11.59c-.628-1.1-1.185-2.252-1.872-3.342A4.219,4.219,0,0,0,436.9,135.9Z" transform="translate(-262.292 -71.948)" fill="#36a656"/>
      <path id="Path_4932" data-name="Path 4932" d="M317.775,189.466c-.818-1-.569-1.019-.723-2.086v-.071l-.095-.107-.142-.166c-.557.249-1.114.521-1.671.83l-10.914,6.079,4.4,7.881c-.616-1.09,1.564-.77,1.647-.782a2.975,2.975,0,0,1,.711-.119.936.936,0,0,1,.581.391,3.614,3.614,0,0,1,.379,2.631c-.13,1.185.5,2.37-.178,3.555.581.948,5.83,10.5,5.854,10.488l10.914-6.079c.628-.356,2.121-.984,2.489-1.612s-.213-1.612.438-1.908a1.754,1.754,0,0,1,1.505.142,13.2,13.2,0,0,0,2.121-16.022c-3.069-5.51-10.037-8.793-16.14-6.233-.427.178.142,2.086-.877,2.3a2.809,2.809,0,0,1,.818-.972m6.8,19.838-5.084,2.832c-.415-.747-.818-1.493-1.244-2.216.533.9-.936.616-1.244.415-.747-.5-.948-1.932-.972-2.737a7.276,7.276,0,0,0-1.185-3.887q-1.79-3.235-3.555-6.47l5.084-2.832c4.74-2.654,9.48-1.552,12.04,3.046S330.467,204.824,325.691,207.443Z" transform="translate(-257.338 -60.035)" fill="#36a656"/>
      <path id="Path_4933" data-name="Path 4933" d="M348.91,171.82a2.939,2.939,0,0,1,.213,1.8c-.059.332-.593,1.185-.521,1.4.19.474.379.948.557,1.422a.793.793,0,0,0,.13.213.557.557,0,0,0,.308.095c1.884.166,1.8.355,1.92,1.943.107,1.363,1.28,2.145,1.943,3.33a8.686,8.686,0,0,1-10.665,12.419,1.256,1.256,0,0,1-.142.119,1.185,1.185,0,0,1-.806.095,3.555,3.555,0,0,1-2.5-2.643.77.77,0,0,1,0-.284,8.93,8.93,0,0,1-.889-1.327,8.378,8.378,0,0,1,3.235-11.85,8.639,8.639,0,0,1,4.882-1.114l-.095-.142c-1.019-1.351,2.655-1.9,1-2.809-.7-.379-.581-2.1-.758-2.8a16.247,16.247,0,0,0-7.667,2.121c-7.584,4.231-10.2,12.609-6.221,19.755a13.936,13.936,0,0,0,7.762,6.53,6.92,6.92,0,0,0,2.465.569c.972-.083.5,0,.912-.581s.166-.83.794-1.446,1.363-.984,1.493-1.932c0,.427.474.735.474,1.185v.379a.806.806,0,0,0,.2.415c.4.545,1.078,1.185,1.09,1.813a14.018,14.018,0,0,0,4.906-1.8c7.549-4.207,10.227-12.573,6.221-19.743C357.075,175.293,353.176,172.057,348.91,171.82Z" transform="translate(-252.388 -62.571)" fill="#36a656"/>
      <path id="Path_4934" data-name="Path 4934" d="M369.143,158.365l8.129,14.588-20.075-7.94-4.6,2.572c3.1,5.57,6.4,11.08,9.314,16.757.2-.616.676-.735,1.244-.818,1.067-.142,1.031.391,1.612,1.446.071.13.154.261.284.284s.391-.19.6-.166.3.284.237.486a2.514,2.514,0,0,1-.3.557c-.344.652.225,1.067.154,1.659,0,.308-1.031,1.564-.912,1.778l1.185,2.038,5.5-3.057-1.469-2.631h-.273c-1.6.213-.889-1.884-1.244-2.749a31.81,31.81,0,0,0-1.955-3.555l-3.235-5.7,16.318,6.423a3.365,3.365,0,0,1,.166-1.387c.13-.249,1.185-.711,1.185-.948a2.939,2.939,0,0,0,1,1.979c.628.557.628.474.51,1.458l.972.391,4.574-2.548L374.677,155.26Z" transform="translate(-248.387 -65.611)" fill="#36a656"/>
      <path id="Path_4935" data-name="Path 4935" d="M392.416,170.684l-3.1-5.558,11.163-6.221-2.37-4.325L386.953,160.8l-2.9-5.226,7.537-4.2a3.554,3.554,0,0,1,1.185-.984,1.067,1.067,0,0,1,.758-.083l3.188-1.766s-2.263-4.041-2.477-4.468c-1.09.5,0,1.872-1.1,2.536.225.237.557,1.078,0,1.185-.32,0-.557-.4-.877-.367s-.332.19-.5.142a.344.344,0,0,1-.225-.2,4.952,4.952,0,0,0-.581-1.007c-.747-.723-7.561,3.816-8.509,4.349l-6.34,3.555,13.379,24.021,5.345-2.974.107-.142c.391-.5.77-1.007,1.185-1.469a1.078,1.078,0,0,1,1.28-.154.806.806,0,0,1,.249.2l10.44-5.819-2.489-4.468Z" transform="translate(-244.037 -67.68)" fill="#36a656"/>
    </g>
    <g id="freepik--Plant--inject-7" transform="translate(441.261 323.606)">
      <path id="Path_4936" data-name="Path 4936" d="M407.366,400.815s-7.8-16.994,1.1-33.762,11.495-20.715,5.819-24.139-8.3,13.4-8.3,13.4-4.74-11.59-.841-23.7,6.435-31.878,1.043-34-1.031,24.637-5.712,33.762a78.652,78.652,0,0,1-4.586-19.9c-.64-9.741.367-25.289-3.9-29.282s-6.98-1.185-2.8,20.264a225.625,225.625,0,0,1,4.16,38.976s-9.255-28.2-15.406-29.022-6.2,8.3-.877,16.223,15.512,22.1,17.183,29.448c0,0-10.144-21.212-19.281-14.718s7.952,19.328,15.56,23.962,12.905,33.655,12.905,33.655Z" transform="translate(-372.358 -281.663)" fill="#36a656"/>
      <path id="Path_4937" data-name="Path 4937" d="M407.366,400.815s-7.8-16.994,1.1-33.762,11.495-20.715,5.819-24.139-8.3,13.4-8.3,13.4-4.74-11.59-.841-23.7,6.435-31.878,1.043-34-1.031,24.637-5.712,33.762a78.652,78.652,0,0,1-4.586-19.9c-.64-9.741.367-25.289-3.9-29.282s-6.98-1.185-2.8,20.264a225.625,225.625,0,0,1,4.16,38.976s-9.255-28.2-15.406-29.022-6.2,8.3-.877,16.223,15.512,22.1,17.183,29.448c0,0-10.144-21.212-19.281-14.718s7.952,19.328,15.56,23.962,12.905,33.655,12.905,33.655Z" transform="translate(-372.358 -281.663)" fill="#36a656" opacity="0.2"/>
      <path id="Path_4938" data-name="Path 4938" d="M398.35,406.746s7.6-17.124-1.505-33.75-11.744-20.537-6.1-24.056,8.438,13.284,8.438,13.284,4.645-11.649.557-23.7-6.814-31.783-1.446-33.975,1.327,24.625,6.115,33.667a78.214,78.214,0,0,0,4.337-19.956c.533-9.753-.664-25.289,3.555-29.342s6.98-1.327,3.046,20.229a225.586,225.586,0,0,0-3.685,39.023s8.912-28.334,15.109-29.247,6.293,8.212,1.078,16.211-15.287,22.338-16.887,29.626c0,0,9.9-21.331,19.1-14.991S422.347,369.2,414.8,373.944s-12.538,33.869-12.538,33.869Z" transform="translate(-369.504 -280.614)" fill="#36a656"/>
      <path id="Path_4939" data-name="Path 4939" d="M436.029,377.8H373.34l5.072,44.866h52.545Z" transform="translate(-372.177 -263.874)" fill="#263238"/>
    </g>
    <g id="freepik--speech-bubble--inject-7" transform="translate(137.05 155.432)">
      <path id="Path_4940" data-name="Path 4940" d="M163.028,139.75h-41.37a6.008,6.008,0,0,0-6.008,6.008v40.22a6.008,6.008,0,0,0,6.008,6.008H134.9L125.984,204.1l15.406-12.111h21.627a6.008,6.008,0,0,0,6.008-6.008v-40.22a6.008,6.008,0,0,0-6-6.008Z" transform="translate(-115.65 -139.75)" fill="#36a656"/>
      <path id="Path_4941" data-name="Path 4941" d="M163.028,139.75h-41.37a6.008,6.008,0,0,0-6.008,6.008v40.22a6.008,6.008,0,0,0,6.008,6.008H134.9L125.984,204.1l15.406-12.111h21.627a6.008,6.008,0,0,0,6.008-6.008v-40.22a6.008,6.008,0,0,0-6-6.008Z" transform="translate(-115.65 -139.75)" fill="#fff" opacity="0.6"/>
      <circle id="Ellipse_115" data-name="Ellipse 115" cx="18.783" cy="18.783" r="18.783" transform="translate(7.916 7.335)" fill="#36a656"/>
      <circle id="Ellipse_116" data-name="Ellipse 116" cx="16.105" cy="16.105" r="16.105" transform="translate(7.32 38.081) rotate(-76.72)" fill="#36a656"/>
      <path id="Path_4942" data-name="Path 4942" d="M137.821,170.676a1.659,1.659,0,0,1-1.185-.462l-6.838-6.7a1.651,1.651,0,0,1,2.3-2.37l5.605,5.487,9.694-10.819a1.647,1.647,0,0,1,2.453,2.192l-10.843,12.1a1.635,1.635,0,0,1-1.185.545Z" transform="translate(-113.125 -136.867)" fill="#fff"/>
    </g>
    <g id="freepik--Character--inject-7" transform="translate(61.34 180.302)">
      <path id="Path_4943" data-name="Path 4943" d="M93.836,399.458l34.141-3.366v-38.5h13.533v38.49l34.283,3.377a6.636,6.636,0,0,1,6,6.612V411.2H87.84V406.07a6.636,6.636,0,0,1,6-6.612Z" transform="translate(-45.086 -124.31)" fill="#263238"/>
      <path id="Path_4944" data-name="Path 4944" d="M93.836,399.458l34.141-3.366v-38.5h13.533v38.49l34.283,3.377a6.636,6.636,0,0,1,6,6.612V411.2H87.84V406.07a6.636,6.636,0,0,1,6-6.612Z" transform="translate(-45.086 -124.31)" fill="#fff" opacity="0.1"/>
      <circle id="Ellipse_117" data-name="Ellipse 117" cx="8.852" cy="8.852" r="8.852" transform="translate(124.237 284.391)" fill="#263238"/>
      <circle id="Ellipse_118" data-name="Ellipse 118" cx="8.852" cy="8.852" r="8.852" transform="translate(37.516 284.391)" fill="#263238"/>
      <path id="Path_4945" data-name="Path 4945" d="M4.894,0h8.438a4.894,4.894,0,0,1,4.894,4.894v37.85H0V4.894A4.894,4.894,0,0,1,4.894,0Z" transform="translate(98.747 243.59) rotate(180)" fill="#263238"/>
      <path id="Path_4946" data-name="Path 4946" d="M4.894,0h8.438a4.894,4.894,0,0,1,4.894,4.894v37.85H0V4.894A4.894,4.894,0,0,1,4.894,0Z" transform="translate(98.747 243.59) rotate(180)" fill="#fff" opacity="0.2"/>
      <path id="Path_4947" data-name="Path 4947" d="M90.1,267.62s10.144,63.258,30.171,74.2H99.913S79.767,320.248,73.7,267.62Z" transform="translate(-47.703 -140.958)" fill="#263238"/>
      <path id="Path_4948" data-name="Path 4948" d="M90.1,267.62s10.144,63.258,30.171,74.2H99.913S79.767,320.248,73.7,267.62Z" transform="translate(-47.703 -140.958)" fill="#fff" opacity="0.1"/>
      <path id="Path_4949" data-name="Path 4949" d="M95.925,322.68h79.3a5.925,5.925,0,0,1,5.925,5.925v7.928H90v-7.928a5.925,5.925,0,0,1,5.925-5.925Z" transform="translate(-44.686 -130.77)" fill="#36a656"/>
      <rect id="Rectangle_14403" data-name="Rectangle 14403" width="98.75" height="6.921" rx="2.01" transform="translate(41.474 198.831)" fill="#263238"/>
      <rect id="Rectangle_14404" data-name="Rectangle 14404" width="98.75" height="6.921" rx="2.01" transform="translate(41.474 198.831)" fill="#fff" opacity="0.6"/>
      <path id="Path_4950" data-name="Path 4950" d="M75.354,285.787h32.577c9.551,0,15.749-7.655,13.853-17.1l-2.536-12.609c-1.9-9.48-11.175-17.088-20.715-17.088H65.956c-9.551,0-15.749,7.655-13.853,17.088l2.536,12.609C56.535,278.108,65.8,285.787,75.354,285.787Z" transform="translate(-51.762 -146.256)" fill="#36a656"/>
      <path id="Path_4951" data-name="Path 4951" d="M220.306,371.225l-7.466,2.927-5.368-10.12-4.882-9.208,8.272-4.953,5,11.293Z" transform="translate(-23.852 -125.739)" fill="#e4897b"/>
      <path id="Path_4952" data-name="Path 4952" d="M215.862,361.163l-8.39,2.868-4.882-9.208,8.272-4.953Z" transform="translate(-23.852 -125.739)" opacity="0.2"/>
      <path id="Path_4953" data-name="Path 4953" d="M234.516,369.815l-10.156,5.451s-38.384-67.488-44.285-66.919-61.895,36.239-78.971,23.061-.462-52.853-.462-52.853,35.326-10.1,39.106-2.37a58.955,58.955,0,0,1,2.536,7.11c.747,2.429,1.315,4.479,1.315,4.479h0c1.078-.438,35.966-14.742,51.538-7.11C211.029,288.509,234.516,369.815,234.516,369.815Z" transform="translate(-44.059 -139.912)" fill="#263238"/>
      <path id="Path_4954" data-name="Path 4954" d="M234.516,369.815l-10.156,5.451s-38.384-67.488-44.285-66.919-61.895,36.239-78.971,23.061-.462-52.853-.462-52.853,35.326-10.1,39.106-2.37a58.955,58.955,0,0,1,2.536,7.11c.747,2.429,1.315,4.479,1.315,4.479h0c1.078-.438,35.966-14.742,51.538-7.11C211.029,288.509,234.516,369.815,234.516,369.815Z" transform="translate(-44.059 -139.912)" fill="#fff" opacity="0.3"/>
      <path id="Path_4955" data-name="Path 4955" d="M167.173,404.757l-7.963-.912-.047-11.234-.012-10.31,9.634-.45-.853,12.123Z" transform="translate(-31.891 -119.821)" fill="#e4897b"/>
      <path id="Path_4956" data-name="Path 4956" d="M167.909,394.214l-8.769-1.4V382.4l9.634-.51Z" transform="translate(-31.893 -119.813)" opacity="0.2"/>
      <path id="Path_4957" data-name="Path 4957" d="M199.72,357.672l14.86-7.442,1.552,6.3-11.258,5.807Z" transform="translate(-24.383 -125.672)" fill="#36a656"/>
      <path id="Path_4958" data-name="Path 4958" d="M122.16,326.807s2.441-.273,40-7.229c0,0,.853,48.018,2.631,83.818l11.566.367s16.591-79.4,14.635-91.438-16.223-13.616-16.223-13.616S149.985,318.014,122.16,326.807Z" transform="translate(-38.735 -135.205)" fill="#263238"/>
      <path id="Path_4959" data-name="Path 4959" d="M122.16,326.807s2.441-.273,40-7.229c0,0,.853,48.018,2.631,83.818l11.566.367s16.591-79.4,14.635-91.438-16.223-13.616-16.223-13.616S149.985,318.014,122.16,326.807Z" transform="translate(-38.735 -135.205)" fill="#fff" opacity="0.4"/>
      <path id="Path_4960" data-name="Path 4960" d="M122.16,326.807s2.441-.273,40-7.229c0,0,.853,48.018,2.631,83.818l11.566.367s16.591-79.4,14.635-91.438-16.223-13.616-16.223-13.616S149.985,318.014,122.16,326.807Z" transform="translate(-38.735 -135.205)" opacity="0.3"/>
      <path id="Path_4961" data-name="Path 4961" d="M156.34,384.407l15.773-.367-2.157,6.494-12.8.118Z" transform="translate(-32.411 -119.416)" fill="#36a656"/>
      <path id="Path_4962" data-name="Path 4962" d="M139,286.229l-20.466,7.288s10.76-8.035,19.15-11.767C138.427,284.179,139,286.229,139,286.229Z" transform="translate(-39.407 -138.344)" opacity="0.3"/>
      <path id="Path_4963" data-name="Path 4963" d="M97.51,277.1l.758,5.676,38.36-8.141-.889-6.707Z" transform="translate(-43.297 -140.901)" fill="#263238"/>
      <path id="Path_4964" data-name="Path 4964" d="M97.51,277.1l.758,5.676,38.36-8.141-.889-6.707Z" transform="translate(-43.297 -140.901)" opacity="0.2"/>
      <rect id="Rectangle_14405" data-name="Rectangle 14405" width="1.943" height="9.895" transform="translate(65.013 132.43) rotate(-10.51)" fill="#263238"/>
      <rect id="Rectangle_14406" data-name="Rectangle 14406" width="8.58" height="6.506" transform="matrix(0.976, -0.22, 0.22, 0.976, 75.281, 131.499)" fill="#fff"/>
      <rect id="Rectangle_14407" data-name="Rectangle 14407" width="1.936" height="9.859" transform="matrix(0.984, -0.181, 0.181, 0.984, 87.127, 126.001)" fill="#263238"/>
      <rect id="Rectangle_14408" data-name="Rectangle 14408" width="1.943" height="9.895" transform="translate(65.013 132.43) rotate(-10.51)" fill="#fff" opacity="0.3"/>
      <rect id="Rectangle_14409" data-name="Rectangle 14409" width="1.936" height="9.859" transform="matrix(0.984, -0.181, 0.181, 0.984, 87.127, 126.001)" fill="#fff" opacity="0.3"/>
      <path id="Path_4965" data-name="Path 4965" d="M233.645,380.95a10.571,10.571,0,0,0-3.851-.438h0s-4.823-2.015-10.665-11.6l-4.977.652a4.136,4.136,0,0,0-3.437,3.259,2.37,2.37,0,0,0,0,.711,27.949,27.949,0,0,0,.877,3.555,100.723,100.723,0,0,0,4.515,11.294l.806-.332-2.572-7.181c-.853-2.453,2.121-.379,3.7,1.991s3.816,4.669,9.137,2.654C233.36,383.095,235.813,381.815,233.645,380.95Z" transform="translate(-22.354 -122.215)" fill="#263238"/>
      <path id="Path_4966" data-name="Path 4966" d="M217.887,366.76s7.987,12.135,11.91,14.149c0,0-4.4,3.555-10.262-2.157-7.572-7.335-8.84-4.823-8.84-4.823a23,23,0,0,1,.2-4.3C211.5,366.843,217.887,366.76,217.887,366.76Z" transform="translate(-22.358 -122.613)" fill="#e4897b"/>
      <path id="Path_4967" data-name="Path 4967" d="M179.222,415.544a10.772,10.772,0,0,0-3.674-1.3h0s-4.207-3.093-7.584-13.782l-4.989-.545a4.1,4.1,0,0,0-4.112,2.37,2.251,2.251,0,0,0-.213.675,26.631,26.631,0,0,0,0,3.638,98.97,98.97,0,0,0,1.706,12.04l.865-.13-.77-7.608c-.249-2.583,2.157.142,3.129,2.82s2.6,5.439,8.236,4.74C178.4,417.57,181.083,416.906,179.222,415.544Z" transform="translate(-31.995 -116.482)" fill="#263238"/>
      <path id="Path_4968" data-name="Path 4968" d="M167.36,398.062s4.882,13.687,8.212,16.591c0,0-5.108,2.37-9.48-4.527-5.629-8.923-7.442-6.778-7.442-6.778a22.893,22.893,0,0,1,1.185-4.124C161.091,396.617,167.36,398.062,167.36,398.062Z" transform="translate(-31.983 -116.895)" fill="#e4897b"/>
      <path id="Path_4969" data-name="Path 4969" d="M93.744,195.76l-10.025,2.015a3.318,3.318,0,0,1-2.868.7c-2.986-1.185-7.288-4.657-7.833-5.925-.806-1.789,0-7.039,2.109-7.987s9.374,7.821,9.374,7.821l10.772-2.429Z" transform="translate(-47.886 -156.341)" fill="#e4897b"/>
      <path id="Path_4970" data-name="Path 4970" d="M122.973,228.649s-.912-32.482-4.669-33.869-32,2.489-32,2.489l-.687-7.418s32.861-5.06,39.225-2.062,8.461,51.407,7.3,60.733Z" transform="translate(-45.497 -155.906)" fill="#36a656"/>
      <path id="Path_4971" data-name="Path 4971" d="M122.973,228.649s-.912-32.482-4.669-33.869-32,2.489-32,2.489l-.687-7.418s32.861-5.06,39.225-2.062,8.461,51.407,7.3,60.733Z" transform="translate(-45.497 -155.906)" fill="#fff" opacity="0.6"/>
      <path id="Path_4972" data-name="Path 4972" d="M86.917,197.672l-1.967-8.153,2.82-1.019,1.789,9.421Z" transform="translate(-45.621 -155.599)" fill="#36a656"/>
      <path id="Path_4973" data-name="Path 4973" d="M86.917,197.672l-1.967-8.153,2.82-1.019,1.789,9.421Z" transform="translate(-45.621 -155.599)" fill="#fff" opacity="0.7"/>
      <path id="Path_4974" data-name="Path 4974" d="M123.291,218.7s-2.524,9.883-14.683,13.035S83,226.652,83,226.652l2.678,23.582,14.884,37.151,38.04-9.919S136.327,234.248,123.291,218.7Z" transform="translate(-45.982 -150.011)" fill="#36a656"/>
      <path id="Path_4975" data-name="Path 4975" d="M123.291,218.7s-2.524,9.883-14.683,13.035S83,226.652,83,226.652l2.678,23.582,14.884,37.151,38.04-9.919S136.327,234.248,123.291,218.7Z" transform="translate(-45.982 -150.011)" fill="#fff" opacity="0.7"/>
      <rect id="Rectangle_14410" data-name="Rectangle 14410" width="6.541" height="10.689" rx="0.79" transform="translate(89.268 106.193) rotate(162.49)" fill="#36a656" opacity="0.6"/>
      <rect id="Rectangle_14411" data-name="Rectangle 14411" width="5.309" height="7.264" transform="translate(88.078 103.719) rotate(162.49)" opacity="0.2"/>
      <rect id="Rectangle_14412" data-name="Rectangle 14412" width="1.173" height="4.278" transform="translate(81.724 94.637) rotate(-17.51)" fill="#263238"/>
      <path id="Path_4976" data-name="Path 4976" d="M97.336,187.55c-9.374,0-15.56,9.931-13.367,25.68s10.974,20.288,10.974,20.288l-.557-3.8a89.351,89.351,0,0,0,29.733,1.659s-4.527-12.846-3.057-25.964C121.061,205.409,124.035,187.526,97.336,187.55Z" transform="translate(-45.884 -155.775)" fill="#263238"/>
      <path id="Path_4977" data-name="Path 4977" d="M113.934,227.031l3.828,14.221-6.731-5.131s6.553,14.979,8.3,23.7c0,0-5.665-14.849-10.547-22.99l-2.856,8.153-11.483-11.7S104.584,225.514,113.934,227.031Z" transform="translate(-43.865 -148.505)" opacity="0.2"/>
      <path id="Path_4978" data-name="Path 4978" d="M108.648,233.651l-11.685.356c5.179-6.624-4.183-18.167-4.183-18.167l11.542,2.5c2.749,11.424,7.5,11.767,7.5,11.767Z" transform="translate(-44.172 -150.54)" fill="#e4897b"/>
      <path id="Path_4979" data-name="Path 4979" d="M107.546,226.534a17.515,17.515,0,0,1-11.59-5.771,35.219,35.219,0,0,0-3.176-4.882l11.542,2.512a26.261,26.261,0,0,0,3.223,8.141Z" transform="translate(-44.172 -150.533)" opacity="0.2"/>
      <path id="Path_4980" data-name="Path 4980" d="M104.76,191.627c10.061.841,12.858,6.494,12.727,16.934-.154,13.035-3.8,22.006-16.152,18.19C84.555,221.573,88.039,190.229,104.76,191.627Z" transform="translate(-44.621 -155.029)" fill="#e4897b"/>
      <path id="Path_4981" data-name="Path 4981" d="M107.826,205a21.413,21.413,0,0,0,2.583,4.42,2.8,2.8,0,0,1-2.749.912Z" transform="translate(-41.419 -152.546)" fill="#de5753"/>
      <path id="Path_4982" data-name="Path 4982" d="M102.05,203.691l2.18-.711S103.069,204.71,102.05,203.691Z" transform="translate(-42.457 -152.92)" fill="#263238"/>
      <path id="Path_4983" data-name="Path 4983" d="M103.06,203.4a1.861,1.861,0,0,0-2.37.64,2.856,2.856,0,0,1,2.37,0Z" transform="translate(-42.708 -152.877)" fill="#263238"/>
      <path id="Path_4984" data-name="Path 4984" d="M99.337,199.653a.426.426,0,0,1-.3-.13.415.415,0,0,1,0-.6,5.664,5.664,0,0,1,4.894-1.28.43.43,0,1,1-.178.841,4.883,4.883,0,0,0-4.1,1.031.415.415,0,0,1-.32.142Z" transform="translate(-43.038 -153.93)" fill="#263238"/>
      <path id="Path_4985" data-name="Path 4985" d="M113.271,199.795a.4.4,0,0,1-.261-.083,4.325,4.325,0,0,0-3.555-1.09.43.43,0,1,1-.225-.83,5.119,5.119,0,0,1,4.325,1.244.438.438,0,0,1,.071.6A.427.427,0,0,1,113.271,199.795Z" transform="translate(-41.187 -153.894)" fill="#263238"/>
      <path id="Path_4986" data-name="Path 4986" d="M92.684,208.319S98.076,200.451,97.9,194c0,0,20.632-6.494,19.932,13.841,0,0,3.437-17.776-13.829-19.66s-19.269,23.5-10.962,31.795C93.039,219.98,89.378,213.249,92.684,208.319Z" transform="translate(-45 -155.676)" fill="#263238"/>
      <path id="Path_4987" data-name="Path 4987" d="M94.4,207.762a4.432,4.432,0,0,0-4.42-4.432c-3.152.083-5.167,6.364,2.465,8.556C93.534,212.194,94.257,211.163,94.4,207.762Z" transform="translate(-45.211 -152.855)" fill="#e4897b"/>
      <path id="Path_4988" data-name="Path 4988" d="M108.766,212.529a24.4,24.4,0,0,0-1.979,3.128c-.2-.071-.415-.13-.616-.213-2.785-.984-3.757-2.37-3.982-3.555a3.7,3.7,0,0,1,.13-1.8,3.852,3.852,0,0,1,.427-.948,13.722,13.722,0,0,0,5.072,3.057C108.387,212.411,108.766,212.529,108.766,212.529Z" transform="translate(-42.441 -151.78)" fill="#263238"/>
      <path id="Path_4989" data-name="Path 4989" d="M107.789,212.177l-.6.912c-2.631-.936-4.349-1.943-4.894-3.022a3.852,3.852,0,0,1,.427-.948A13.723,13.723,0,0,0,107.789,212.177Z" transform="translate(-42.412 -151.783)" fill="#fff"/>
      <path id="Path_4990" data-name="Path 4990" d="M106.162,215.015c-2.785-.984-3.757-2.37-3.982-3.555a9.385,9.385,0,0,1,2.88,1.695,3.555,3.555,0,0,1,1.1,1.861Z" transform="translate(-42.433 -151.35)" fill="#de5753"/>
      <path id="Path_4991" data-name="Path 4991" d="M105.263,193.326s-5.439,16.223-15.844,15.109,7.43-20.715,7.43-20.715,17.55-5.013,25.194,4.74-3.78,15.666-3.78,15.666S119.969,195.4,105.263,193.326Z" transform="translate(-45.397 -155.981)" fill="#263238"/>
      <path id="Path_4992" data-name="Path 4992" d="M95.327,206.287a.332.332,0,0,1-.284-.19.308.308,0,0,1,.178-.391c8.3-3.164,8.106-14.292,8.106-14.41a.273.273,0,0,1,.284-.3.32.32,0,0,1,.308.284c0,.118.19,11.661-8.485,14.979Z" transform="translate(-43.757 -155.136)" fill="#263238"/>
      <path id="Path_4993" data-name="Path 4993" d="M110.67,204.519l2.18-.7S111.677,205.538,110.67,204.519Z" transform="translate(-40.862 -152.764)" fill="#263238"/>
      <path id="Path_4994" data-name="Path 4994" d="M111.68,204.23a1.849,1.849,0,0,0-2.37.652,2.832,2.832,0,0,1,2.37-.071Z" transform="translate(-41.113 -152.724)" fill="#263238"/>
      <path id="Path_4995" data-name="Path 4995" d="M98.312,227.13l8.8,4.479-.142,8.923L94.39,233.2Z" transform="translate(-43.874 -148.451)" fill="#36a656"/>
      <path id="Path_4996" data-name="Path 4996" d="M106.26,225.71l.521,5.416,5.747,6.079-.782-10Z" transform="translate(-41.678 -148.714)" fill="#36a656"/>
      <path id="Path_4997" data-name="Path 4997" d="M74.961,176.454l-3.674-9.48a3.294,3.294,0,0,0-.96-2.785c-2.56-1.908-7.845-3.638-9.172-3.437-1.932.284-5.925,3.78-5.582,6.067s11.625,3.7,11.625,3.7l3.745,10.393Z" transform="translate(-51.061 -160.736)" fill="#e4897b"/>
      <path id="Path_4998" data-name="Path 4998" d="M88.859,259.112s7.11-5.653,4.278-18.143l-7.644-34.556L72.363,170.72l-6.423,3.247S76.724,208.843,77.719,211.2c.51,1.185,2.536,19.281,5.3,31.4C85.552,253.768,88.859,259.112,88.859,259.112Z" transform="translate(-49.139 -158.889)" fill="#36a656"/>
      <path id="Path_4999" data-name="Path 4999" d="M88.859,259.112s7.11-5.653,4.278-18.143l-7.644-34.556L72.363,170.72l-6.423,3.247S76.724,208.843,77.719,211.2c.51,1.185,2.536,19.281,5.3,31.4C85.552,253.768,88.859,259.112,88.859,259.112Z" transform="translate(-49.139 -158.889)" fill="#fff" opacity="0.6"/>
      <path id="Path_5000" data-name="Path 5000" d="M64.99,173.187l7.5-3.757,1.635,2.5-8.769,3.887Z" transform="translate(-49.314 -159.128)" fill="#36a656"/>
      <path id="Path_5001" data-name="Path 5001" d="M64.99,173.187l7.5-3.757,1.635,2.5-8.769,3.887Z" transform="translate(-49.314 -159.128)" fill="#fff" opacity="0.7"/>
      <path id="Path_5002" data-name="Path 5002" d="M98.312,227.13l8.8,4.479-.142,8.923L94.39,233.2Z" transform="translate(-43.874 -148.451)" fill="#fff" opacity="0.6"/>
      <path id="Path_5003" data-name="Path 5003" d="M106.26,225.71l.521,5.416,5.747,6.079-.782-10Z" transform="translate(-41.678 -148.714)" fill="#fff" opacity="0.6"/>
    </g>
    <g id="freepik--Desk--inject-7" transform="translate(164.022 238.848)">
      <rect id="Rectangle_14413" data-name="Rectangle 14413" width="35.504" height="27.588" transform="translate(176.441 1.505)" fill="#fff"/>
      <rect id="Rectangle_14414" data-name="Rectangle 14414" width="9.101" height="27.588" transform="translate(202.844 1.505)" opacity="0.1"/>
      <path id="Path_5004" data-name="Path 5004" d="M285.58,263.068h40.137V213H312.789L285.58,226.024Z" transform="translate(-111.177 -209.611)" fill="#36a656"/>
      <rect id="Rectangle_14415" data-name="Rectangle 14415" width="12.929" height="50.068" transform="translate(201.611 3.389)" opacity="0.2"/>
      <rect id="Rectangle_14416" data-name="Rectangle 14416" width="18.795" height="9.006" transform="translate(178.539 26.284)" fill="#fff" opacity="0.7"/>
      <rect id="Rectangle_14417" data-name="Rectangle 14417" width="18.795" height="1.292" transform="translate(178.539 38.301)" fill="#fff" opacity="0.7"/>
      <rect id="Rectangle_14418" data-name="Rectangle 14418" width="10.44" height="7.644" transform="translate(202.844 42.081)" fill="#fff" opacity="0.7"/>
      <rect id="Rectangle_14419" data-name="Rectangle 14419" width="35.504" height="29.093" transform="translate(161.356)" fill="#fff"/>
      <rect id="Rectangle_14420" data-name="Rectangle 14420" width="9.101" height="29.093" transform="translate(187.758)" opacity="0.1"/>
      <path id="Path_5005" data-name="Path 5005" d="M272.85,263.068h40.137V213H300.059L272.85,226.024Z" transform="translate(-113.533 -209.611)" fill="#36a656"/>
      <rect id="Rectangle_14421" data-name="Rectangle 14421" width="12.929" height="50.068" transform="translate(186.526 3.389)" opacity="0.2"/>
      <rect id="Rectangle_14422" data-name="Rectangle 14422" width="18.795" height="9.006" transform="translate(163.453 26.284)" fill="#fff" opacity="0.7"/>
      <rect id="Rectangle_14423" data-name="Rectangle 14423" width="18.795" height="1.292" transform="translate(163.453 38.301)" fill="#fff" opacity="0.7"/>
      <rect id="Rectangle_14424" data-name="Rectangle 14424" width="10.44" height="7.644" transform="translate(187.758 42.081)" fill="#fff" opacity="0.7"/>
      <path id="Path_5006" data-name="Path 5006" d="M251.81,444.018h7.264L272.11,262.41h-9.634Z" transform="translate(-117.426 -200.468)" fill="#263238"/>
      <path id="Path_5007" data-name="Path 5007" d="M251.81,443.972h7.264l12.4-172.59.64-8.722h-9.634l-.51,8.722Z" transform="translate(-117.426 -200.422)" fill="#fff" opacity="0.1"/>
      <path id="Path_5008" data-name="Path 5008" d="M260.38,270.955h9.5l.64-8.3H260.89Z" transform="translate(-115.84 -200.422)" opacity="0.2"/>
      <path id="Path_5009" data-name="Path 5009" d="M207.035,444.018H214.3l1.185-181.608H205.85Z" transform="translate(-125.931 -200.468)" fill="#263238"/>
      <path id="Path_5010" data-name="Path 5010" d="M205.84,262.66l.2,29.294.984,152.017h7.264l1-152.017.19-29.294Z" transform="translate(-125.933 -200.422)" fill="#fff" opacity="0.1"/>
      <path id="Path_5011" data-name="Path 5011" d="M205.84,262.66l.2,29.626h9.243l.19-29.626Z" transform="translate(-125.933 -200.422)" opacity="0.2"/>
      <path id="Path_5012" data-name="Path 5012" d="M141.81,444.018h7.264L162.11,262.41h-9.634Z" transform="translate(-137.781 -200.468)" fill="#263238"/>
      <path id="Path_5013" data-name="Path 5013" d="M141.81,443.972h7.264l12.407-172.59.628-8.722h-9.634l-.51,8.722Z" transform="translate(-137.781 -200.422)" fill="#fff" opacity="0.1"/>
      <path id="Path_5014" data-name="Path 5014" d="M150.38,270.955H159.9l.628-8.3H150.89Z" transform="translate(-136.195 -200.422)" opacity="0.2"/>
      <path id="Path_5015" data-name="Path 5015" d="M323.927,444.018h7.264L320.514,262.41H310.88Z" transform="translate(-106.496 -200.468)" fill="#263238"/>
      <path id="Path_5016" data-name="Path 5016" d="M310.88,262.66l.652,8.722,12.4,172.59h7.252l-10.144-172.59-.521-8.722Z" transform="translate(-106.496 -200.422)" fill="#fff" opacity="0.1"/>
      <path id="Path_5017" data-name="Path 5017" d="M320.514,262.66H310.88l.652,8.3h9.5Z" transform="translate(-106.496 -200.422)" opacity="0.2"/>
      <path id="Path_5018" data-name="Path 5018" d="M2.56,0H212.028a2.56,2.56,0,0,1,2.56,2.56v6.53H0V2.56A2.56,2.56,0,0,1,2.56,0Z" transform="translate(221.662 66.493) rotate(180)" fill="#36a656"/>
      <path id="Path_5019" data-name="Path 5019" d="M2.56,0H212.028a2.56,2.56,0,0,1,2.56,2.56v6.53H0V2.56A2.56,2.56,0,0,1,2.56,0Z" transform="translate(221.662 66.493) rotate(180)" fill="#fff" opacity="0.4"/>
      <rect id="Rectangle_14425" data-name="Rectangle 14425" width="214.588" height="4.551" transform="translate(221.662 61.942) rotate(180)" opacity="0.2"/>
      <path id="Path_5020" data-name="Path 5020" d="M140.982,260.369H364.564a2.548,2.548,0,0,0,2.56-2.56h0a2.56,2.56,0,0,0-2.56-2.56H140.982a2.572,2.572,0,0,0-2.572,2.56h0a2.56,2.56,0,0,0,2.572,2.56Z" transform="translate(-138.41 -201.793)" fill="#36a656"/>
      <path id="Path_5021" data-name="Path 5021" d="M140.982,260.369H364.564a2.548,2.548,0,0,0,2.56-2.56h0a2.56,2.56,0,0,0-2.56-2.56H140.982a2.572,2.572,0,0,0-2.572,2.56h0a2.56,2.56,0,0,0,2.572,2.56Z" transform="translate(-138.41 -201.793)" fill="#fff" opacity="0.4"/>
      <path id="Path_5022" data-name="Path 5022" d="M297.413,258.977v-4.005h2.69l-2.69-1.564h2.015l-2.69-1.754h-2.548v-2.015h2.963l-2.963-1.173v-4.373h2.963v-2.856H300.1l-2.951-1V238.2h2.109l-1.73-1.718-1.493-1.505h-45.79v2.05h-3.022l3.366,1.517v1.695h-6.174v3.152H241.68l2.737,1.375v3.52h1.943v1.683h3.887v5h-2.18l1.789,1.789V259Z" transform="translate(-119.301 -205.544)" fill="#36a656"/>
      <path id="Path_5023" data-name="Path 5023" d="M297.413,258.977v-4.005h2.69l-2.69-1.564h2.015l-2.69-1.754h-2.548v-2.015h2.963l-2.963-1.173v-4.373h2.963v-2.856H300.1l-2.951-1V238.2h2.109l-1.73-1.718-1.493-1.505h-45.79v2.05h-3.022l3.366,1.517v1.695h-6.174v3.152H241.68l2.737,1.375v3.52h1.943v1.683h3.887v5h-2.18l1.789,1.789V259Z" transform="translate(-119.301 -205.544)" fill="#fff" opacity="0.7"/>
      <path id="Path_5024" data-name="Path 5024" d="M294.03,258.977v-4.005h2.69l-2.69-1.564h2.015l-2.69-1.754h-2.548v-2.015h2.963l-2.963-1.173v-4.373h2.963v-2.856h2.951l-2.951-1V238.2h2.109l-1.73-1.718-1.493-1.505H268.54v2.05h-3.022l3.354,1.517v1.695H262.7v3.152H259.96l2.737,1.375v3.52h1.943v1.683h3.9v5h-2.181l1.778,1.789V259Z" transform="translate(-115.918 -205.544)" opacity="0.1"/>
      <path id="Path_5025" data-name="Path 5025" d="M249.2,239.542h21.663L249.2,238.76Z" transform="translate(-117.909 -204.844)" opacity="0.1"/>
      <path id="Path_5026" data-name="Path 5026" d="M248.91,247.63h21.674l.095,1.517Z" transform="translate(-117.963 -203.203)" opacity="0.1"/>
      <path id="Path_5027" data-name="Path 5027" d="M245.63,246.21h21.663l-21.663.758Z" transform="translate(-118.57 -203.465)" opacity="0.1"/>
      <path id="Path_5028" data-name="Path 5028" d="M248.91,251.974h21.674l-21.674-.794Z" transform="translate(-117.963 -202.546)" opacity="0.1"/>
      <path id="Path_5029" data-name="Path 5029" d="M248.58,253.36h21.663v.83Z" transform="translate(-118.024 -202.142)" opacity="0.1"/>
      <path id="Path_5030" data-name="Path 5030" d="M243.99,242.187h21.663L243.99,241.5Z" transform="translate(-118.873 -204.337)" opacity="0.1"/>
      <path id="Path_5031" data-name="Path 5031" d="M248.91,236.828h21.674l-21.674-.758Z" transform="translate(-117.963 -205.342)" opacity="0.1"/>
      <path id="Path_5032" data-name="Path 5032" d="M291.923,237.7H269.94l21.983.676Z" transform="translate(-114.071 -205.04)" opacity="0.1"/>
      <path id="Path_5033" data-name="Path 5033" d="M267.48,239.42h24.9l-22.575.735Z" transform="translate(-114.526 -204.722)" opacity="0.1"/>
      <path id="Path_5034" data-name="Path 5034" d="M262.27,242.08l31.072.7v-.7Z" transform="translate(-115.491 -204.23)" opacity="0.1"/>
      <path id="Path_5035" data-name="Path 5035" d="M262.27,243.24h15.37l-15.37.747Z" transform="translate(-115.491 -204.015)" opacity="0.1"/>
      <path id="Path_5036" data-name="Path 5036" d="M289.467,246.465l-22.267-.178,22.267-.5Z" transform="translate(-114.578 -203.543)" opacity="0.1"/>
      <path id="Path_5037" data-name="Path 5037" d="M289.53,247.35H266.86l22.67.758Z" transform="translate(-114.641 -203.255)" opacity="0.1"/>
      <path id="Path_5038" data-name="Path 5038" d="M292.638,250.53H267.48v.77Z" transform="translate(-114.526 -202.666)" opacity="0.1"/>
      <path id="Path_5039" data-name="Path 5039" d="M291.556,251.85H273.33l18.226.51Z" transform="translate(-113.444 -202.422)" opacity="0.1"/>
      <path id="Path_5040" data-name="Path 5040" d="M252.041,250.87v3.8c0,.972-1.185,1.375-2.121,1.375H173.935c-.972,0-2.145-.4-2.145-1.375v-3.8Z" transform="translate(-132.233 -202.603)" fill="#263238"/>
      <path id="Path_5041" data-name="Path 5041" d="M252.041,250.87v3.8c0,.972-1.185,1.375-2.121,1.375H173.935c-.972,0-2.145-.4-2.145-1.375v-3.8Z" transform="translate(-132.233 -202.603)" fill="#fff" opacity="0.4"/>
      <path id="Path_5042" data-name="Path 5042" d="M248,250.87v3.8c0,.972-1.185,1.375-2.121,1.375H195.763c-.972,0-2.133-.4-2.133-1.375v-3.8Z" transform="translate(-128.192 -202.603)" opacity="0.2"/>
      <path id="Path_5043" data-name="Path 5043" d="M260.131,217.847l-9.054,41.038a3.069,3.069,0,0,1-2.939,2.37h-49.4a1.991,1.991,0,0,1-1.861-2.572l9.03-40.718a2.832,2.832,0,0,1,2.939-2.015h49.416C259.586,215.9,260.416,216.508,260.131,217.847Z" transform="translate(-127.608 -209.066)" fill="#263238"/>
      <path id="Path_5044" data-name="Path 5044" d="M259.87,217.848l-9.054,41.038a3.069,3.069,0,0,1-2.939,2.37H200.144a1.991,1.991,0,0,1-1.861-2.572l9.042-40.718a2.82,2.82,0,0,1,2.939-2.015H258C259.325,215.9,260.155,216.508,259.87,217.848Z" transform="translate(-127.347 -209.066)" fill="#fff" opacity="0.4"/>
      <path id="Path_5045" data-name="Path 5045" d="M231.289,236.142h0c0,3.555-3.768,6.364-6.53,6.364s-4.4-2.856-3.555-6.364,3.555-6.245,6.233-6.352c-.782,3.555.9,6.352,3.65,6.352Z" transform="translate(-123.13 -206.504)" opacity="0.2"/>
    </g>
  </g>
</svg>
