<svg xmlns="http://www.w3.org/2000/svg" width="25.075" height="16.698" viewBox="0 0 25.075 16.698">
  <g id="Icons" transform="translate(0.35 0.359)">
    <g id="Group_1869" data-name="Group 1869" transform="translate(0 0)">
      <path id="Path_4619" data-name="Path 4619" d="M22.889,25.22c2.76.113,6.126-.383,8.4.655a8.664,8.664,0,0,1,4.571,4.93,8.348,8.348,0,0,1,.325,1.191V28.811a8.409,8.409,0,0,0-.768-3.51,8.5,8.5,0,0,0-5.143-4.541,13.827,13.827,0,0,0-5.052-.332c-.777.051-1.558.075-2.337.075V16.517a.506.506,0,0,0-.778-.431L12.055,22.43a.5.5,0,0,0,0,.862L17.61,26.8l2,1.269,2.5,1.58a.509.509,0,0,0,.778-.431v-4" transform="translate(-11.813 -16.005)" fill="#ffd947"/>
      <path id="Path_4620" data-name="Path 4620" d="M22.889,25.22c2.76.113,6.126-.383,8.4.655a8.664,8.664,0,0,1,4.571,4.93,8.348,8.348,0,0,1,.325,1.191V28.811a8.409,8.409,0,0,0-.768-3.51,8.5,8.5,0,0,0-5.143-4.541,13.827,13.827,0,0,0-5.052-.332c-.777.051-1.558.075-2.337.075V16.517a.506.506,0,0,0-.778-.431L12.055,22.43a.5.5,0,0,0,0,.862L17.61,26.8l2,1.269,2.5,1.58a.509.509,0,0,0,.778-.431v-4h0" transform="translate(-11.813 -16.005)" fill="none" stroke="#303030" stroke-linecap="round" stroke-linejoin="round" stroke-width="0.7"/>
      <line id="Line_593" data-name="Line 593" x1="2.998" y2="1.908" transform="translate(3.97 4.208)" fill="none" stroke="#303030" stroke-linecap="round" stroke-linejoin="round" stroke-width="0.7"/>
      <line id="Line_594" data-name="Line 594" y1="0.46" x2="0.684" transform="translate(8.047 2.904)" fill="none" stroke="#303030" stroke-linecap="round" stroke-linejoin="round" stroke-width="0.7"/>
    </g>
  </g>
</svg>
